<?xml version="1.0" encoding="UTF-8"?>
<svg id="Ebene_1" xmlns="http://www.w3.org/2000/svg" xmlns:xlink="http://www.w3.org/1999/xlink" version="1.1" viewBox="0 0 575.4 642.76">
  <!-- Generator: Adobe Illustrator 30.6.0, SVG Export Plug-In . SVG Version: 2.1.4 Build 109)  -->
  <defs>
    <style>
      .st0, .st1 {
        fill: none;
      }

      .st2 {
        fill: url(#Unbenannter_Verlauf);
      }

      .st3 {
        fill: url(#Unbenannter_Verlauf_2);
      }

      .st4 {
        fill: url(#Unbenannter_Verlauf_4);
      }

      .st5 {
        fill: url(#Unbenannter_Verlauf_3);
      }

      .st6 {
        fill: url(#Unbenannter_Verlauf_8);
      }

      .st7 {
        fill: url(#Unbenannter_Verlauf_6);
      }

      .st8 {
        fill: url(#Unbenannter_Verlauf_7);
      }

      .st9 {
        fill: url(#Unbenannter_Verlauf_5);
      }

      .st1 {
        stroke: #c7b5a3;
        stroke-width: 2.07px;
      }

      .st10 {
        clip-path: url(#clippath-1);
      }

      .st11 {
        clip-path: url(#clippath-3);
      }

      .st12 {
        clip-path: url(#clippath-4);
      }

      .st13 {
        clip-path: url(#clippath-2);
      }

      .st14 {
        clip-path: url(#clippath-7);
      }

      .st15 {
        clip-path: url(#clippath-6);
      }

      .st16 {
        clip-path: url(#clippath-5);
      }

      .st17 {
        fill: #5b5450;
      }

      .st18 {
        fill: #c7b5a3;
      }

      .st19 {
        clip-path: url(#clippath);
      }
    </style>
    <clipPath id="clippath">
      <path class="st0" d="M229.47,156.48l-6.11,3.98,6.17-2.43c74.08-38.92,169.12,14.42,175.44,97.94,5.12,43.62-13.91,87.1-46.81,115.43-51.71,48.92-137.49,38.92-187.81-7.4-4.3-3.68-10.84-10.62-14.95-14.41l1.69,2.35c90.54,112.38,262.9,52.35,259.47-92.84-2.42-70.62-61.68-119.02-125.26-119.02-20.76,0-41.98,5.16-61.83,16.39"/>
    </clipPath>
    <linearGradient id="Unbenannter_Verlauf" data-name="Unbenannter Verlauf" x1="-10.83" y1="834.51" x2="-9.83" y2="834.51" gradientTransform="translate(5349.1342 408002.3753) scale(488.5639 -488.5639)" gradientUnits="userSpaceOnUse">
      <stop offset="0" stop-color="#5b5450"/>
      <stop offset="0" stop-color="#5b5450"/>
      <stop offset=".53" stop-color="#c7b5a3"/>
      <stop offset=".61" stop-color="#c2b09f"/>
      <stop offset=".71" stop-color="#b4a495"/>
      <stop offset=".8" stop-color="#9e9083"/>
      <stop offset=".9" stop-color="#7f746c"/>
      <stop offset="1" stop-color="#5b5450"/>
    </linearGradient>
    <clipPath id="clippath-1">
      <path class="st0" d="M322.59,328.15s0,0,0,0c0,0,0,0,0,0M288.54,265.77c-1.32,3.51-6.27,7.76-8.38,11.01,0,0-.16-20.34-.16-20.34-3.02-7.88-2.68,24.79-3.38,25.68-.69-1.59-5.84-9.7-6.86-11.36,6.46,14.78,5.86,30.67,1.46,46.06-18.74-32.99,5.71-25.59-13.11-42.9-2.78,6.63-2.79,13.94,4.12,18.57l-.35,5.77c-4.24-4.33-7.76-7.81-12.49-11.63,4.61,5.73,10.25,12.65,13.43,19.58l-10.97-3.53-.83-.09c-6.87-9.99-17.31-9.35-27.42-.59,8.39,6.87,19.18,10.88,26.98.67,19.94,7.48,16.19,45.09,14.69,58.29-1.17,10.38-18.89,17.65-42.87,19.16,18.93,3.98,37.52-.96,56.08-5.92,19.35-5.16,38.67-10.32,58.32-5.36-3.62-3.21-11.39-4.91-20.4-5.14-3.33-.08-7.8.28-12.5.64-10.88.83-23.06,1.66-25.51-2.99-5.17-9.82-3.31-55.05,21.79-47.34.41,10.9,10.39,14.22,19.35,14.44.72,0,1.47-.07,2.04-.15.55-.08.94-.16.99-.15-6.12-15.61-10.05-15.29-16.59-14.97-3.58.18-7.95.35-13.89-2.1,5.15-3.85,12.75-6.77,18.99-7.98-8.59-.76-19.57,4.66-26.84,8.68,1.51-7.58,9.59-15.15,14.35-20.45l-8.93,6.22c.33-1.8,1-5.45,1.34-7.26,7.65-1.61,9.19-10.74,6.76-17.38-.08-.3-10.93,5.04-8.76,13.87,2.24,10.34-6.4,21.49-11.12,30.83,1.52-16.88-1.58-37.68,11.68-50.64,11.95,1.91,18.64-10.1,19.36-22.01-13.37,2.24-21.01,9.28-20.41,20.8"/>
    </clipPath>
    <linearGradient id="Unbenannter_Verlauf_2" data-name="Unbenannter Verlauf 2" x1="-10.83" y1="834.48" x2="-9.83" y2="834.48" gradientTransform="translate(5359.9938 408010.1578) scale(488.5639 -488.5639)" gradientUnits="userSpaceOnUse">
      <stop offset="0" stop-color="#5b5450"/>
      <stop offset="0" stop-color="#5b5450"/>
      <stop offset=".53" stop-color="#c7b5a3"/>
      <stop offset=".61" stop-color="#c2b09f"/>
      <stop offset=".71" stop-color="#b4a495"/>
      <stop offset=".8" stop-color="#9e9083"/>
      <stop offset=".9" stop-color="#7f746c"/>
      <stop offset="1" stop-color="#5b5450"/>
    </linearGradient>
    <clipPath id="clippath-2">
      <path class="st0" d="M228.74,270.92c.78,10.65,13.14,23.62,21.12,16.12,1.01-11.29-9.68-16.15-19.9-16.15-.4,0-.81,0-1.21.02"/>
    </clipPath>
    <linearGradient id="Unbenannter_Verlauf_3" data-name="Unbenannter Verlauf 3" x1="-10.83" y1="834.58" x2="-9.83" y2="834.58" gradientTransform="translate(5336.9656 408026.4517) scale(488.5639 -488.5639)" gradientUnits="userSpaceOnUse">
      <stop offset="0" stop-color="#5b5450"/>
      <stop offset="0" stop-color="#5b5450"/>
      <stop offset=".53" stop-color="#c7b5a3"/>
      <stop offset=".61" stop-color="#c2b09f"/>
      <stop offset=".71" stop-color="#b4a495"/>
      <stop offset=".8" stop-color="#9e9083"/>
      <stop offset=".9" stop-color="#7f746c"/>
      <stop offset="1" stop-color="#5b5450"/>
    </linearGradient>
    <clipPath id="clippath-3">
      <path class="st0" d="M297.87,291.85c9.66,6.74,19.58-.96,24.48-10.33-2.59-1.24-5.75-1.84-8.93-1.84-8.62,0-17.41,4.39-15.55,12.16"/>
    </clipPath>
    <linearGradient id="Unbenannter_Verlauf_4" data-name="Unbenannter Verlauf 4" x1="-10.83" y1="834.49" x2="-9.83" y2="834.49" gradientTransform="translate(5349.9492 407990.6504) scale(488.5639 -488.5639)" gradientUnits="userSpaceOnUse">
      <stop offset="0" stop-color="#5b5450"/>
      <stop offset="0" stop-color="#5b5450"/>
      <stop offset=".53" stop-color="#c7b5a3"/>
      <stop offset=".61" stop-color="#c2b09f"/>
      <stop offset=".71" stop-color="#b4a495"/>
      <stop offset=".8" stop-color="#9e9083"/>
      <stop offset=".9" stop-color="#7f746c"/>
      <stop offset="1" stop-color="#5b5450"/>
    </linearGradient>
    <clipPath id="clippath-4">
      <path class="st0" d="M269.88,271.08c4.99-10.67-4.27-19.13-14.34-22.37-2.9,10.27,4.29,26.69,14.34,22.37"/>
    </clipPath>
    <linearGradient id="Unbenannter_Verlauf_5" data-name="Unbenannter Verlauf 5" x1="-10.83" y1="834.59" x2="-9.83" y2="834.59" gradientTransform="translate(5329.7652 408010.5661) scale(488.5639 -488.5639)" gradientUnits="userSpaceOnUse">
      <stop offset="0" stop-color="#5b5450"/>
      <stop offset="0" stop-color="#5b5450"/>
      <stop offset=".53" stop-color="#c7b5a3"/>
      <stop offset=".61" stop-color="#c2b09f"/>
      <stop offset=".71" stop-color="#b4a495"/>
      <stop offset=".8" stop-color="#9e9083"/>
      <stop offset=".9" stop-color="#7f746c"/>
      <stop offset="1" stop-color="#5b5450"/>
    </linearGradient>
    <clipPath id="clippath-5">
      <path class="st0" d="M279.36,256.88c11.48-8,6.97-22.21-1.46-31.52-9.09,8.84-11.45,29.99,1.46,31.52"/>
    </clipPath>
    <linearGradient id="Unbenannter_Verlauf_6" data-name="Unbenannter Verlauf 6" x1="-10.83" y1="834.61" x2="-9.83" y2="834.61" gradientTransform="translate(5320.8011 407999.4527) scale(488.5639 -488.5639)" gradientUnits="userSpaceOnUse">
      <stop offset="0" stop-color="#5b5450"/>
      <stop offset="0" stop-color="#5b5450"/>
      <stop offset=".53" stop-color="#c7b5a3"/>
      <stop offset=".61" stop-color="#c2b09f"/>
      <stop offset=".71" stop-color="#b4a495"/>
      <stop offset=".8" stop-color="#9e9083"/>
      <stop offset=".9" stop-color="#7f746c"/>
      <stop offset="1" stop-color="#5b5450"/>
    </linearGradient>
    <clipPath id="clippath-6">
      <path class="st0" d="M309.89,303.03c-1.52,7.94,10.95,8.96,16.83,8.22,8.24-1.04,13.2-6.4,13.2-6.4,0,0-3.28-4.72-14.41-7.28-2.41-.55-4.44-.79-6.16-.79-8.94,0-9.46,6.25-9.46,6.25"/>
    </clipPath>
    <linearGradient id="Unbenannter_Verlauf_7" data-name="Unbenannter Verlauf 7" x1="-10.83" y1="834.45" x2="-9.83" y2="834.45" gradientTransform="translate(5361.2304 407984.5817) scale(488.5639 -488.5639)" gradientUnits="userSpaceOnUse">
      <stop offset="0" stop-color="#5b5450"/>
      <stop offset="0" stop-color="#5b5450"/>
      <stop offset=".53" stop-color="#c7b5a3"/>
      <stop offset=".61" stop-color="#c2b09f"/>
      <stop offset=".71" stop-color="#b4a495"/>
      <stop offset=".8" stop-color="#9e9083"/>
      <stop offset=".9" stop-color="#7f746c"/>
      <stop offset="1" stop-color="#5b5450"/>
    </linearGradient>
    <clipPath id="clippath-7">
      <path class="st0" d="M278.62,178.41l-93.58,86.61c-.85.78-1.12,1.98-.7,3.05.42,1.07,1.44,1.76,2.59,1.76h15.06l-.05,102.01c1.35.89,2.73,1.7,4.15,2.45l.05-105.83c0-1.53-1.25-2.78-2.78-2.78h-12.93l90.09-83.37,46.97,43.4c.81.75,1.98.95,2.99.51,1.01-.43,1.67-1.43,1.68-2.53l.1-11.47,12.19.06.03,28.57c0,.83.37,1.61,1.01,2.14l27.59,22.77h-12.86c-1.53,0-2.78,1.25-2.78,2.78v89.83c1.45-1.18,2.83-2.44,4.15-3.75v-84.72h15.3c1.19,0,2.21-.72,2.61-1.84.4-1.12.07-2.33-.85-3.08l-30.04-24.78-.03-29.29c0-1.53-1.24-2.77-2.76-2.78l-14.92-.08c-.74.06-1.44.28-1.97.8-.53.52-.82,1.22-.83,1.95l-.08,9.74-45.63-42.16c-.53-.49-1.21-.73-1.89-.73s-1.36.24-1.89.73"/>
    </clipPath>
    <linearGradient id="Unbenannter_Verlauf_8" data-name="Unbenannter Verlauf 8" x1="-10.83" y1="834.54" x2="-9.83" y2="834.54" gradientTransform="translate(5339.8888 408003.0484) scale(488.5639 -488.5639)" gradientUnits="userSpaceOnUse">
      <stop offset="0" stop-color="#5b5450"/>
      <stop offset="0" stop-color="#5b5450"/>
      <stop offset=".53" stop-color="#c7b5a3"/>
      <stop offset=".61" stop-color="#c2b09f"/>
      <stop offset=".71" stop-color="#b4a495"/>
      <stop offset=".8" stop-color="#9e9083"/>
      <stop offset=".9" stop-color="#7f746c"/>
      <stop offset="1" stop-color="#5b5450"/>
    </linearGradient>
  </defs>
  <g>
    <line class="st1" x1="26.55" y1="528.24" x2="271.92" y2="528.24"/>
    <line class="st1" x1="302.87" y1="528.24" x2="548.24" y2="528.24"/>
  </g>
  <path class="st17" d="M34.62,496.39v-2.72c7.95-.58,8.73-1.16,8.73-9.41v-38.79c0-8.24-.78-8.82-8.73-9.41v-2.72h25.7v2.72c-7.95.58-8.73,1.16-8.73,9.41v38.79c0,8.34.78,8.82,8.73,9.41v2.72h-25.7ZM80.2,463.13c2.91-4.85,7.08-10.28,11.73-10.28,3.3,0,5.62,2.52,5.62,4.85,0,1.94-1.26,3.88-3.1,4.75-1.16.48-2.04.39-2.62-.19-1.36-1.45-2.52-2.04-4.07-2.04-2.52,0-5.62,2.91-7.76,8.34v17.75c0,6.4.48,6.98,7.95,7.56v2.52h-22.3v-2.52c6.01-.58,6.69-1.16,6.69-7.56v-20.07c0-6.4-.48-6.79-6.01-7.56v-2.13c4.75-.78,9.02-1.94,13.67-3.98v10.57h.19ZM102.11,496.39v-2.52c6.11-.58,6.79-1.16,6.79-7.76v-19.98c0-6.01-.29-6.4-6.11-7.37v-2.33c4.95-.78,9.5-2.04,13.77-3.78v33.45c0,6.59.68,7.18,6.88,7.76v2.52h-21.33ZM107.25,439.47c0-2.91,2.33-5.04,4.95-5.04s4.85,2.13,4.85,5.04c0,2.62-2.13,4.95-4.95,4.95-2.52,0-4.85-2.33-4.85-4.95ZM153.22,465.46c-1.84-5.72-5.24-9.6-9.99-9.6-3.68,0-6.3,2.91-6.3,6.69,0,4.36,3.88,6.59,8.24,8.44,7.27,3.01,12.22,6.5,12.22,13.19,0,8.82-8.24,13.38-16,13.38-4.95,0-9.41-1.84-11.15-3.3-.68-1.36-1.55-7.95-1.55-11.44l2.52-.48c1.75,6.4,6.11,12.02,11.93,12.02,3.59,0,6.88-2.72,6.88-6.79s-2.81-6.59-7.66-8.82c-5.82-2.72-12.12-5.92-12.12-13.38,0-6.79,5.82-12.51,14.74-12.51,3.98,0,6.59.87,8.63,1.65.78,2.23,1.84,7.95,2.13,10.38l-2.52.58ZM240.29,496.39v-2.72c7.85-.78,8.24-1.26,8.15-11.54l-.29-39.56h-.39l-23.66,53.14h-1.94l-21.72-51.78h-.19l-1.45,27.64c-.39,7.95-.39,12.22-.29,16.1.19,4.65,2.52,5.33,8.92,6.01v2.72h-22.59v-2.72c5.62-.68,7.56-1.75,8.24-5.82.48-3.39,1.07-7.66,1.84-17.75l1.36-20.17c.87-12.61.39-12.99-8.44-13.87v-2.72h15.9l22.11,48.48,22.4-48.48h16.48v2.72c-8.53.78-9.21.97-8.92,10.96l.97,35.1c.29,10.28.58,10.76,9.02,11.54v2.72h-25.5ZM315.75,494.07c-4.46.68-9.41,2.04-14.25,3.49l-.58-.58v-6.88c-2.23,1.65-4.46,3.39-7.18,5.04-2.81,1.65-4.85,2.42-7.47,2.42-6.5,0-12.02-3.98-12.02-14.45v-19.01c0-5.33-.39-5.72-5.92-6.79v-2.23c4.56-.29,9.21-.87,13.87-1.75-.29,3.01-.29,7.56-.29,14.16v12.99c0,8.63,4.17,10.96,8.53,10.96,3.49,0,7.18-1.45,10.47-4.65v-22.59c0-5.53-.58-5.92-7.56-6.88v-2.23c5.04-.29,10.08-.68,15.22-1.75v32.39c0,4.85.78,5.53,4.46,5.72l2.72.19v2.42ZM345.23,465.46c-1.84-5.72-5.24-9.6-9.99-9.6-3.68,0-6.3,2.91-6.3,6.69,0,4.36,3.88,6.59,8.24,8.44,7.27,3.01,12.22,6.5,12.22,13.19,0,8.82-8.24,13.38-16,13.38-4.95,0-9.41-1.84-11.15-3.3-.68-1.36-1.55-7.95-1.55-11.44l2.52-.48c1.75,6.4,6.11,12.02,11.93,12.02,3.59,0,6.88-2.72,6.88-6.79s-2.81-6.59-7.66-8.82c-5.82-2.72-12.12-5.92-12.12-13.38,0-6.79,5.82-12.51,14.74-12.51,3.98,0,6.59.87,8.63,1.65.78,2.23,1.84,7.95,2.13,10.38l-2.52.58ZM380.32,465.46c-1.84-5.72-5.24-9.6-9.99-9.6-3.68,0-6.3,2.91-6.3,6.69,0,4.36,3.88,6.59,8.24,8.44,7.27,3.01,12.22,6.5,12.22,13.19,0,8.82-8.24,13.38-16,13.38-4.95,0-9.41-1.84-11.15-3.3-.68-1.36-1.55-7.95-1.55-11.44l2.52-.48c1.75,6.4,6.11,12.02,11.93,12.02,3.59,0,6.88-2.72,6.88-6.79s-2.81-6.59-7.66-8.82c-5.82-2.72-12.12-5.92-12.12-13.38,0-6.79,5.82-12.51,14.74-12.51,3.98,0,6.59.87,8.63,1.65.78,2.23,1.84,7.95,2.13,10.38l-2.52.58ZM416.29,496.39v-2.52c5.62-.58,6.4-1.16,6.4-7.47v-16.1c0-7.95-3.01-11.93-9.5-11.93-3.68,0-7.37,1.84-10.08,4.95v23.08c0,6.21.48,6.88,6.21,7.47v2.52h-20.56v-2.52c5.82-.48,6.69-1.07,6.69-7.47v-46.25c0-6.11-.19-6.59-6.59-7.18v-2.23c4.65-.68,10.47-2.23,14.25-3.39v32.58c3.39-3.49,8.63-7.08,13.87-7.08,7.85,0,13.38,4.95,13.38,16.58v16.97c0,6.4.68,6.98,6.4,7.47v2.52h-20.46ZM484.27,474.48c0,15.61-11.44,23.08-21.04,23.08-13.28,0-21.24-10.67-21.24-21.43,0-16,12.41-23.27,21.24-23.27,12.02,0,21.04,9.6,21.04,21.62ZM451.01,473.02c0,12.22,5.33,21.33,13.28,21.33,6.01,0,10.96-4.46,10.96-17.75,0-11.35-4.56-20.56-12.99-20.56-6.01,0-11.25,6.01-11.25,16.97ZM496.29,452.76c0-2.62.48-5.33,1.16-7.37.87-2.42,2.62-6.79,7.66-10.67,3.88-3.1,7.66-4.85,12.32-5.24,5.53.19,9.21,2.52,11.25,4.65,4.27-4.27,8.53-6.21,12.7-6.79,3.3.1,6.21,1.45,7.85,3.39.87,1.07.97,2.23.48,3.2-.29.78-1.16,1.75-2.04,2.33-.87.78-1.94.87-2.81,0-1.84-1.84-4.75-3.98-7.95-3.98-2.52,0-3.98,1.36-5.04,3.1-1.16,1.94-2.23,6.4-2.13,15.32l.1,3.3h11.54c.48.87.19,3.1-.87,3.78h-10.76v28.51c0,6.5.68,6.98,7.95,7.66v2.42h-21.62v-2.42c5.33-.68,6.11-1.26,6.11-7.66v-28.51h-18.23v28.51c0,6.4.68,6.98,6.59,7.66v2.42h-20.85v-2.52c5.82-.58,6.59-1.16,6.59-7.56v-28.51h-6.88l-.29-1.07,2.52-2.72h4.65v-1.26ZM522.18,452.18c0-3.2.29-5.82.78-7.47.39-1.65,1.07-3.2,1.94-5.04-1.94-2.91-5.62-6.11-10.76-6.11-3.68,0-5.82,2.04-7.18,4.17-1.65,2.42-3.01,6.59-3.01,13.96v2.33h18.23v-1.84Z"/>
  <g>
    <path class="st18" d="M40.6,572.85v-19.35h13.66v2.41h-10.89v14.54h11.28v2.41h-14.04ZM43.12,564.19v-2.35h9.95v2.35h-9.95Z"/>
    <path class="st18" d="M60.2,572.85v-19.35h2.27l12.8,15.9h-1.19v-15.9h2.77v19.35h-2.27l-12.8-15.9h1.19v15.9h-2.76Z"/>
    <path class="st18" d="M83.76,572.85v-19.35h13.66v2.41h-10.89v14.54h11.28v2.41h-14.04ZM86.27,564.19v-2.35h9.95v2.35h-9.95Z"/>
    <path class="st18" d="M103.36,572.85v-19.35h7.55c2.51,0,4.48.59,5.92,1.78,1.44,1.19,2.16,2.84,2.16,4.96,0,1.4-.32,2.6-.97,3.61-.65,1-1.57,1.77-2.76,2.31-1.2.53-2.65.8-4.34.8h-6.03l1.24-1.27v7.16h-2.76ZM106.12,565.96l-1.24-1.36h5.94c1.77,0,3.11-.38,4.02-1.15.91-.76,1.37-1.84,1.37-3.22s-.46-2.45-1.37-3.21c-.91-.76-2.25-1.13-4.02-1.13h-5.94l1.24-1.38v11.45ZM116.3,572.85l-4.92-7.02h2.96l4.98,7.02h-3.01Z"/>
    <path class="st18" d="M133.3,573.07c-1.49,0-2.87-.24-4.12-.73-1.25-.49-2.34-1.18-3.26-2.07-.92-.89-1.64-1.94-2.16-3.14s-.77-2.52-.77-3.95.26-2.75.77-3.95,1.24-2.24,2.17-3.14c.93-.89,2.02-1.58,3.28-2.07,1.25-.49,2.64-.73,4.15-.73s2.93.25,4.2.75c1.27.5,2.35,1.24,3.23,2.24l-1.71,1.71c-.79-.77-1.65-1.34-2.58-1.7-.93-.36-1.94-.54-3.03-.54s-2.13.18-3.08.55-1.77.88-2.46,1.55c-.69.66-1.23,1.45-1.6,2.36-.38.91-.57,1.9-.57,2.97s.19,2.03.57,2.94c.38.91.91,1.71,1.6,2.38.69.67,1.51,1.19,2.45,1.56.94.37,1.96.55,3.07.55,1.03,0,2.02-.16,2.97-.48.95-.32,1.83-.86,2.64-1.62l1.58,2.1c-.96.81-2.08,1.42-3.36,1.84-1.28.42-2.6.62-3.97.62ZM140.63,570.61l-2.65-.36v-7.19h2.65v7.55Z"/>
    <path class="st18" d="M147.01,572.85v-19.35h2.76v19.35h-2.76Z"/>
    <path class="st18" d="M156.69,572.85v-19.35h13.66v2.41h-10.89v14.54h11.28v2.41h-14.04ZM159.21,564.19v-2.35h9.95v2.35h-9.95Z"/>
    <path class="st18" d="M184.81,572.85v-19.35h13.66v2.41h-10.89v16.95h-2.76ZM187.3,565.02v-2.38h9.98v2.38h-9.98Z"/>
    <path class="st18" d="M211.49,573.07c-2.54,0-4.54-.73-6-2.18-1.46-1.46-2.18-3.58-2.18-6.39v-11h2.76v10.89c0,2.16.47,3.73,1.42,4.73.95,1,2.29,1.49,4.02,1.49s3.1-.5,4.05-1.49,1.42-2.57,1.42-4.73v-10.89h2.68v11c0,2.8-.72,4.93-2.17,6.39-1.45,1.46-3.45,2.18-6.01,2.18ZM208.94,551.45c-.39,0-.72-.13-1-.4s-.41-.6-.41-1.01.14-.77.41-1.04.61-.4,1-.4.72.13,1,.4.41.61.41,1.04-.14.74-.41,1.01-.61.4-1,.4ZM214.09,551.45c-.39,0-.72-.13-1-.4-.28-.27-.42-.6-.42-1.01s.14-.77.42-1.04c.28-.27.61-.4,1-.4s.72.13,1,.4c.28.27.42.61.42,1.04s-.14.74-.42,1.01c-.28.27-.61.4-1,.4Z"/>
    <path class="st18" d="M226.44,572.85v-19.35h7.55c2.51,0,4.48.59,5.92,1.78,1.44,1.19,2.16,2.84,2.16,4.96,0,1.4-.32,2.6-.97,3.61-.65,1-1.57,1.77-2.76,2.31-1.2.53-2.65.8-4.34.8h-6.03l1.24-1.27v7.16h-2.76ZM229.21,565.96l-1.24-1.36h5.94c1.77,0,3.11-.38,4.02-1.15.91-.76,1.37-1.84,1.37-3.22s-.46-2.45-1.37-3.21c-.91-.76-2.25-1.13-4.02-1.13h-5.94l1.24-1.38v11.45ZM239.38,572.85l-4.92-7.02h2.96l4.98,7.02h-3.01Z"/>
    <path class="st18" d="M256.16,572.85v-19.35h7.55c2.51,0,4.48.59,5.92,1.78,1.44,1.19,2.16,2.84,2.16,4.96,0,1.4-.32,2.6-.97,3.61-.65,1-1.57,1.77-2.76,2.31-1.2.53-2.65.8-4.34.8h-6.03l1.24-1.27v7.16h-2.76ZM258.93,565.96l-1.24-1.36h5.94c1.77,0,3.11-.38,4.02-1.15.91-.76,1.37-1.84,1.37-3.22s-.46-2.45-1.37-3.21c-.91-.76-2.25-1.13-4.02-1.13h-5.94l1.24-1.38v11.45ZM269.1,572.85l-4.92-7.02h2.96l4.98,7.02h-3.01Z"/>
    <path class="st18" d="M274.44,572.85l8.76-19.35h2.74l8.79,19.35h-2.9l-7.82-17.8h1.11l-7.82,17.8h-2.85ZM278.17,568.01l.75-2.21h10.89l.8,2.21h-12.44ZM282.01,551.45c-.39,0-.72-.13-1-.4-.28-.27-.41-.6-.41-1.01s.14-.77.41-1.04c.28-.27.61-.4,1-.4s.72.13,1,.4.41.61.41,1.04-.14.74-.41,1.01-.61.4-1,.4ZM287.16,551.45c-.39,0-.72-.13-1-.4-.28-.27-.41-.6-.41-1.01s.14-.77.41-1.04c.28-.27.61-.4,1-.4s.72.13,1,.4.42.61.42,1.04-.14.74-.42,1.01-.61.4-1,.4Z"/>
    <path class="st18" d="M306.29,573.07c-2.54,0-4.54-.73-6-2.18s-2.18-3.58-2.18-6.39v-11h2.76v10.89c0,2.16.47,3.73,1.42,4.73s2.29,1.49,4.02,1.49,3.1-.5,4.05-1.49c.95-1,1.42-2.57,1.42-4.73v-10.89h2.68v11c0,2.8-.72,4.93-2.17,6.39-1.45,1.46-3.45,2.18-6.01,2.18Z"/>
    <path class="st18" d="M321.25,572.85v-19.35h2.27l8.68,14.63h-1.22l8.57-14.63h2.27l.03,19.35h-2.65l-.03-15.18h.64l-7.63,12.83h-1.27l-7.69-12.83h.69v15.18h-2.65Z"/>
    <path class="st18" d="M348.75,572.85v-19.35h13.66v2.41h-10.89v14.54h11.28v2.41h-14.04ZM351.27,564.19v-2.35h9.95v2.35h-9.95Z"/>
    <path class="st18" d="M384.92,573.07c-2.54,0-4.54-.73-6-2.18s-2.18-3.58-2.18-6.39v-11h2.76v10.89c0,2.16.47,3.73,1.42,4.73s2.29,1.49,4.02,1.49,3.1-.5,4.05-1.49c.95-1,1.42-2.57,1.42-4.73v-10.89h2.68v11c0,2.8-.72,4.93-2.17,6.39-1.45,1.46-3.45,2.18-6.01,2.18Z"/>
    <path class="st18" d="M399.87,572.85v-19.35h2.27l12.8,15.9h-1.19v-15.9h2.76v19.35h-2.27l-12.8-15.9h1.19v15.9h-2.76Z"/>
    <path class="st18" d="M423.43,572.85v-19.35h8.16c2.06,0,3.88.41,5.46,1.22,1.58.81,2.8,1.95,3.68,3.4.88,1.46,1.31,3.14,1.31,5.06s-.44,3.6-1.31,5.06c-.88,1.46-2.1,2.59-3.68,3.4-1.58.81-3.4,1.22-5.46,1.22h-8.16ZM426.19,570.44h5.23c1.6,0,2.99-.3,4.16-.91,1.17-.61,2.08-1.46,2.72-2.56.64-1.1.97-2.36.97-3.8s-.32-2.73-.97-3.82c-.65-1.09-1.55-1.94-2.72-2.54-1.17-.61-2.56-.91-4.16-.91h-5.23v14.54Z"/>
    <path class="st18" d="M464.62,573.07c-1.47,0-2.84-.25-4.11-.75-1.26-.5-2.36-1.19-3.28-2.09-.92-.89-1.64-1.94-2.16-3.14-.52-1.2-.77-2.51-.77-3.93s.26-2.73.77-3.93c.52-1.2,1.23-2.24,2.16-3.14.92-.89,2.01-1.59,3.26-2.09,1.25-.5,2.63-.75,4.12-.75s2.83.24,4.08.73,2.33,1.18,3.26,2.07c.93.89,1.65,1.94,2.16,3.14.51,1.2.76,2.52.76,3.95s-.25,2.76-.76,3.95c-.51,1.2-1.23,2.24-2.16,3.14-.93.89-2.02,1.58-3.26,2.07-1.24.49-2.6.73-4.08.73ZM464.62,570.61c1.07,0,2.06-.18,2.97-.55.91-.37,1.71-.89,2.38-1.56s1.2-1.46,1.58-2.36c.38-.9.57-1.89.57-2.96s-.19-2.05-.57-2.96c-.38-.9-.9-1.69-1.58-2.36-.67-.67-1.46-1.19-2.38-1.56-.91-.37-1.9-.55-2.97-.55s-2.09.18-3,.55-1.71.89-2.39,1.56c-.68.67-1.21,1.46-1.59,2.36s-.57,1.89-.57,2.96.19,2.06.57,2.96c.38.9.91,1.69,1.59,2.36s1.48,1.19,2.39,1.56c.91.37,1.91.55,3,.55Z"/>
    <path class="st18" d="M480.19,572.85v-19.35h7.55c2.51,0,4.48.59,5.92,1.78,1.44,1.19,2.16,2.84,2.16,4.96,0,1.4-.32,2.6-.97,3.61-.64,1-1.57,1.77-2.76,2.31s-2.64.8-4.34.8h-6.03l1.24-1.27v7.16h-2.76ZM482.95,565.96l-1.24-1.36h5.94c1.77,0,3.11-.38,4.02-1.15.91-.76,1.37-1.84,1.37-3.22s-.46-2.45-1.37-3.21-2.25-1.13-4.02-1.13h-5.94l1.24-1.38v11.45ZM493.13,572.85l-4.92-7.02h2.96l4.98,7.02h-3.01Z"/>
    <path class="st18" d="M504.96,572.85v-16.95h-6.64v-2.41h16.01v2.41h-6.63v16.95h-2.74Z"/>
    <path class="st18" d="M518.45,572.85v-19.35h13.66v2.41h-10.89v14.54h11.28v2.41h-14.04ZM520.97,564.19v-2.35h9.95v2.35h-9.95Z"/>
  </g>
  <g>
    <path class="st18" d="M99.07,600.35c.41,0,.78.31.78.72,0,.05-.05.21-.05.26-5.18,16.46-6.62,26.34-9.11,37.37-.36,1.6-.72,2.64-1.4,3.26-.31.31-.83.52-1.29.41s-.83-.41-1.14-.72c-1.19-1.35-2.07-3.99-3.05-7.5-1.92-7.04-3.62-17.13-4.09-23.6-.31-3.11-.72-5.12-1.14-6.16-.21-.52-.41-.72-.47-.78l-.05-.05-.05.05c-.26.16-.98,1.19-1.6,2.69s-1.29,3.47-1.97,5.8c-2.64,9.26-5.02,23.39-5.38,29.66,0,.41-.31.67-.72.67s-.78-.31-.78-.72l.05-.05c.36-6.47,2.79-20.5,5.43-29.92.67-2.33,1.35-4.45,2.02-6.06s1.24-2.74,2.17-3.31c.23-.16.52-.23.81-.23s.59.08.85.23c.52.31.83.78,1.09,1.45.52,1.35.93,3.42,1.24,6.57v.05c.47,6.31,2.12,16.41,3.99,23.29.93,3.47,2.02,6.16,2.74,6.94.16.16.31.21.31.21.21-.16.62-1.04.98-2.54,2.48-10.97,3.93-20.91,9.16-37.47.1-.31.36-.52.67-.52Z"/>
    <path class="st18" d="M107.57,622.61c.41,0,.72.31.72.72v.21c-.4,1.46-.54,2.6-.54,3.42,0,.58.07,1.01.18,1.29.16.36.26.47.47.57s.52.16.98.05c1.76-.36,4.92-2.69,7.3-5.28.1-.16.31-.21.52-.21.41,0,.78.31.78.72,0,.16-.1.41-.21.52-2.48,2.74-5.54,5.18-8.07,5.69-.24.04-.49.06-.74.06-.39,0-.78-.06-1.13-.22-.57-.26-1.04-.72-1.29-1.35-.19-.5-.3-1.11-.3-1.82,0-.25.01-.5.04-.77-1.14,1.29-2.64,2.74-4.4,3.73-.52.26-.98.41-1.45.41s-.88-.31-1.14-.67c-.32-.49-.42-1.01-.42-1.55,0-.25.02-.51.06-.78.16-1.66.78-3.47.78-3.47.1-.31.36-.52.67-.52.41,0,.78.31.78.72,0,.05-.05.16-.05.21,0,0-.52,1.81-.67,3.21-.05.72.05,1.29.1,1.4.05,0,.26-.05.62-.26,3.16-1.76,5.8-5.75,5.8-5.75.1-.21.41-.31.62-.31Z"/>
    <path class="st18" d="M123.14,605.01c.41,0,.72.31.72.72,0,.1,0,.26-.05.36,0,0-1.55,3-3,7.04h5.69c.41,0,.72.31.72.72s-.31.78-.72.78h-6.21c-1.1,3.33-2.07,7.16-2.07,10.43,0,.43.02.86.05,1.27.16,1.66.67,2.23,1.29,2.48.22.09.48.14.79.14.57,0,1.28-.16,2.06-.5,2.38-.98,5.23-3.26,6.62-4.81.1-.16.36-.26.57-.26.41,0,.72.31.72.72,0,.16-.1.41-.21.52-1.55,1.71-4.4,4.09-7.14,5.23-.9.37-1.78.63-2.62.63-.47,0-.92-.08-1.36-.26-1.24-.52-2.02-1.81-2.17-3.78-.04-.47-.06-.95-.06-1.44,0-3.37.89-7.06,1.97-10.36h-3.67c-.41,0-.78-.36-.78-.78s.36-.72.78-.72h4.19l.16-.47c1.5-4.14,3.05-7.25,3.05-7.25.1-.21.41-.41.67-.41Z"/>
    <path class="st18" d="M136.13,621.52c.36,0,.67.05,1.04.21.47.21.88.67.88,1.24s-.26,1.04-.67,1.6c-1.09,1.5-2.95,2.9-4.55,3.93-.21.16-.36.26-.57.36h3.05c2.12,0,5.02-1.29,7.3-2.64s4.04-2.69,4.04-2.69c.1-.1.31-.16.47-.16.41,0,.72.31.72.72,0,.21-.16.47-.31.57,0,0-1.76,1.45-4.14,2.85s-5.38,2.85-8.07,2.85h-5.85c-.41,0-.72-.31-.72-.72,0-.26.21-.57.41-.67,0,0,1.29-.72,2.85-1.71s3.31-2.33,4.14-3.52c.26-.36.36-.57.41-.67-.09-.02-.24-.03-.43-.03-.39,0-.97.05-1.59.18-2.02.47-4.5,1.45-4.5,1.45-.05.05-.21.05-.31.05-.41,0-.72-.36-.72-.78,0-.26.21-.57.47-.67,0,0,2.48-1.04,4.71-1.5.67-.16,1.35-.26,1.97-.26Z"/>
    <path class="st18" d="M150.16,621.52h.16c.21,0,.41.05.62.1.83.21,1.55.67,1.76,1.45.1.41,0,.88-.26,1.24s-.67.57-1.14.72c-.37.11-.8.16-1.3.16-.71,0-1.57-.11-2.63-.32-.62.78-1.14,1.6-1.24,2.23-.1.52,0,.83.36,1.14s1.19.57,2.59.57c2.28,0,4.66-1.29,6.47-2.59s2.95-2.64,2.95-2.64c.1-.16.36-.21.57-.21.41,0,.72.31.72.72,0,.16-.1.41-.21.52,0,0-1.29,1.4-3.21,2.79s-4.5,2.9-7.3,2.9c-1.6,0-2.79-.31-3.57-.93-.62-.5-.88-1.25-.88-1.99,0-.19.02-.37.05-.55.31-1.81,1.81-3.57,3.47-4.66.67-.47,1.35-.67,2.02-.67ZM150.26,623.02c-.36,0-.83.1-1.29.41-.1.05-.16.16-.26.21.4.06.76.08,1.07.08.53,0,.93-.07,1.16-.13.21-.05.26-.1.31-.16-.05-.05-.26-.26-.67-.36-.1,0-.21-.05-.31-.05Z"/>
    <path class="st18" d="M182.93,605.01c.41,0,.67.31.67.72v.26s-1.6,5.12-2.54,10.61c-.41,2.39-.69,4.85-.69,6.92,0,.31,0,.61.02.9.05,1.14.21,2.12.47,2.85s.62,1.19,1.04,1.45c.16.1.33.14.54.14.34,0,.75-.12,1.27-.35.83-.36,1.76-1.04,2.59-1.76,1.71-1.45,3.05-3.11,3.05-3.11.1-.16.36-.26.57-.26.41,0,.72.31.72.72,0,.16-.05.36-.16.47,0,0-1.45,1.76-3.26,3.31-.93.78-1.86,1.5-2.9,1.97-.59.27-1.24.45-1.86.45-.47,0-.93-.1-1.35-.34-.83-.47-1.29-1.29-1.66-2.23s-.52-2.02-.57-3.26c-.01-.32-.02-.66-.02-1,0-1.02.06-2.11.17-3.2-.47,1.4-.98,2.74-1.45,3.93-.93,2.33-1.71,4.09-2.59,5.02-.52.52-1.24.93-1.92,1.09-.2.04-.4.07-.6.07-.49,0-.98-.14-1.42-.43-.62-.41-.98-1.19-.98-2.12s.26-2.07.88-3.47l.05-.05c.78-1.35,1.5-2.12,2.33-2.54.37-.19.76-.27,1.12-.27.44,0,.85.12,1.16.32.41.26.72.57.98.88.78-2.07,1.6-4.45,2.38-6.78,1.76-5.33,3.16-10.35,3.16-10.35v-.05c.1-.31.41-.52.72-.52h.05ZM174.44,622.97c-.1,0-.31.05-.47.16-.41.21-.98.67-1.66,1.86-.57,1.24-.72,2.17-.72,2.79s.21.88.36.98.47.21.83.1.78-.31,1.14-.67c.41-.41,1.24-1.92,2.02-3.83-.05-.05-.52-.93-1.09-1.24-.16-.1-.21-.16-.36-.16h-.05Z"/>
    <path class="st18" d="M190.03,623.38c.41,0,.72.31.72.72v.05c-.05.83-.22,1.7-.22,2.47,0,.09,0,.19,0,.28.05.83.21,1.4.88,1.76.3.16.69.25,1.15.25.43,0,.92-.08,1.44-.25,1.09-.36,2.38-1.04,3.52-1.81,2.33-1.5,4.19-3.26,4.19-3.26.1-.1.36-.21.52-.21.41,0,.72.31.72.72,0,.21-.05.47-.21.57,0,0-2.02,1.81-4.45,3.42-1.24.78-2.54,1.55-3.83,1.97-.66.21-1.35.36-2.02.36s-1.25-.13-1.81-.46c-1.19-.67-1.55-1.92-1.6-3,0-.12,0-.24,0-.36,0-.96.17-1.85.22-2.54,0-.41.36-.67.78-.67ZM190.75,618.57c.41,0,.72.31.72.72,0,.05-.05.21-.05.26l-.41,1.24c-.1.31-.36.52-.67.52-.41,0-.78-.31-.78-.72,0-.05.05-.21.05-.26l.41-1.24c.1-.31.41-.52.72-.52Z"/>
    <path class="st18" d="M205.28,621.52h.16c.21,0,.41.05.62.1.83.21,1.55.67,1.76,1.45.1.41,0,.88-.26,1.24s-.67.57-1.14.72c-.37.11-.8.16-1.3.16-.71,0-1.57-.11-2.63-.32-.62.78-1.14,1.6-1.24,2.23-.1.52,0,.83.36,1.14s1.19.57,2.59.57c2.28,0,4.66-1.29,6.47-2.59s2.95-2.64,2.95-2.64c.1-.16.36-.21.57-.21.41,0,.72.31.72.72,0,.16-.1.41-.21.52,0,0-1.29,1.4-3.21,2.79s-4.5,2.9-7.3,2.9c-1.6,0-2.79-.31-3.57-.93-.62-.5-.88-1.25-.88-1.99,0-.19.02-.37.05-.55.31-1.81,1.81-3.57,3.47-4.66.67-.47,1.35-.67,2.02-.67ZM205.39,623.02c-.36,0-.83.1-1.29.41-.1.05-.16.16-.26.21.4.06.76.08,1.07.08.53,0,.93-.07,1.16-.13.21-.05.26-.1.31-.16-.05-.05-.26-.26-.67-.36-.1,0-.21-.05-.31-.05Z"/>
    <path class="st18" d="M233.85,600.35c.41,0,.78.31.78.72,0,.05-.05.1-.05.16,0,0-1.76,8.13-3.47,17.29-.67,3.57-1.35,7.3-1.86,10.71,3.31-5.07,14.18-21.07,23.24-28.73.1-.1.31-.16.47-.16h.05c.41,0,.72.31.72.72,0,.21-.1.47-.26.57-9.99,8.44-22.41,27.54-23.55,29.35.88.52,4.19,2.54,8.28,4.81,2.33,1.29,4.76,2.59,6.78,3.57.98.47,1.86.93,2.59,1.19s1.29.36,1.45.36c.41,0,.72.36.72.78s-.31.72-.72.72c-.57,0-1.19-.21-1.97-.52s-1.71-.67-2.74-1.19c-2.07-.98-4.5-2.33-6.83-3.62-4.09-2.28-7.66-4.45-8.59-5.02-.44,3.18-.69,6.03-.69,8,0,.59.02,1.1.07,1.52v.1c0,.41-.36.72-.78.72-.36,0-.67-.31-.72-.67-.06-.53-.09-1.14-.09-1.82,0-2.11.28-4.9.71-8.07.57-4.19,1.4-9.01,2.23-13.61,1.71-9.16,3.52-17.34,3.52-17.34.05-.31.41-.57.72-.57Z"/>
    <path class="st18" d="M246.81,621.83h.1c.1,0,.26.1.36.16.93.52,1.19,1.4,1.45,2.02s.47.98,1.09,1.19c.09.02.2.04.33.04.68,0,1.81-.32,2.72-.71,1.14-.52,1.97-1.04,1.97-1.04.1-.05.31-.1.41-.1.41,0,.72.31.72.72,0,.21-.16.52-.36.62,0,0-.93.62-2.17,1.14-.98.41-2.1.88-3.19.88-.29,0-.57-.03-.85-.11h-.05c-1.14-.36-1.66-1.35-1.97-2.07-.26-.62-.41-.98-.67-1.19-.1.1-.31.26-.52.52-.47.57-1.04,1.45-1.55,2.33-1.09,1.81-2.02,3.73-2.02,3.73-.1.21-.41.41-.67.41-.1,0-.26-.05-.36-.1-.36-.21-.52-.57-.62-.88s-.05-.62-.05-.93c0-.62.16-1.35.31-2.02.31-1.35.83-2.59.83-2.59.1-.26.36-.47.67-.47.41,0,.72.31.72.72,0,.05,0,.21-.05.26,0,0-.36,1.04-.67,2.17.21-.36.41-.67.62-1.04.57-.93,1.14-1.86,1.71-2.54.31-.36.62-.67.93-.88.21-.16.52-.26.83-.26Z"/>
    <path class="st18" d="M260.6,621.16c.41,0,.78.36.78.78,0,.05-.05.1-.05.16v.05c0,.05-.05.1-.05.16-.05.1-.05.21-.1.31-.72,2.19-1.01,3.8-1.01,4.8,0,.3.03.54.07.74.1.47.31.57.47.67s.47.16.93.05c.88-.21,2.17-.88,3.47-1.86s2.54-2.23,3.47-3.36c.1-.16.36-.26.57-.26.41,0,.78.31.78.72,0,.16-.1.36-.21.47-.98,1.24-2.33,2.54-3.73,3.57s-2.79,1.92-4.09,2.17c-.24.06-.48.08-.7.08-.41,0-.79-.09-1.16-.29-.57-.31-1.04-.88-1.19-1.6-.1-.4-.16-.85-.16-1.35,0-.28.02-.57.05-.88-.16.21-.26.31-.41.52-.72.88-1.5,1.76-2.17,2.38-.36.31-.67.62-.98.83s-.62.41-1.09.36c-.31,0-.67-.16-.88-.41s-.36-.57-.41-.83c-.02-.13-.03-.26-.03-.39,0-.44.12-.89.24-1.37.36-1.29,1.09-2.79,2.07-4.14.85-1.19,1.87-1.61,2.72-1.61.19,0,.37.02.54.06.62.1,1.09.41,1.35.62.1-.26.21-.47.21-.52s.05-.05.05-.1c.1-.26.41-.52.67-.52ZM257.7,623.07c-.36,0-.83.21-1.45,1.04-.88,1.19-1.55,2.59-1.86,3.62-.1.47-.1.88-.1,1.09.05,0,0,0,.05-.05.21-.1.47-.36.78-.62.62-.57,1.4-1.4,2.07-2.28.62-.78,1.24-1.6,1.71-2.33l-.05-.05s-.31-.26-.78-.36c-.1,0-.26-.05-.36-.05Z"/>
    <path class="st18" d="M274.96,605.01c.41,0,.72.31.72.72,0,.1,0,.21-.05.31,0,0-1.5,3.62-3.05,8.44-1.24,3.93-2.54,8.7-3,12.84,1.04-.41,1.35-.57,2.85-1.19,2.9-1.14,6.06-2.38,7.45-2.74h.21c.41,0,.78.31.78.72,0,.31-.26.62-.57.72-1.14.31-4.45,1.55-7.35,2.69-1.86.72-2.54.98-3.52,1.4,0,.36-.05.72-.05,1.09v.21c.05.1.16.21.21.31.72.98,1.5,2.23,2.07,3.57.48,1.13.81,2.42.81,3.69,0,.24-.01.48-.04.71-.16,1.5-.88,2.95-2.33,4.09-.05.05-.21.16-.26.16-.26.05-.62,0-.88-.16s-.36-.36-.47-.62c-.21-.47-.36-1.04-.47-1.97-.14-1.14-.21-2.83-.21-5.2,0-1.18.02-2.53.05-4.07-.47-.57-.88-.93-1.09-1.09-.16-.1-.31-.41-.31-.62,0-.26.21-.57.47-.67,0,0,.88-.36,1.04-.41.41-4.5,1.86-9.63,3.21-13.87,1.55-4.92,3.11-8.59,3.11-8.59.1-.26.41-.47.67-.47ZM269.32,632.75c0,.61-.01,1.18-.01,1.71,0,2.5.09,4.27.22,5.38.05.52.1.88.16,1.14.78-.83,1.19-1.66,1.29-2.64.02-.17.02-.34.02-.51,0-1.01-.25-2.11-.7-3.17-.26-.67-.62-1.29-.98-1.92Z"/>
    <path class="st18" d="M286.19,605.01c.41,0,.72.31.72.72,0,.1,0,.26-.05.36,0,0-1.55,3-3,7.04h5.69c.41,0,.72.31.72.72s-.31.78-.72.78h-6.21c-1.1,3.33-2.07,7.16-2.07,10.43,0,.43.02.86.05,1.27.16,1.66.67,2.23,1.29,2.48.22.09.48.14.79.14.57,0,1.28-.16,2.06-.5,2.38-.98,5.23-3.26,6.62-4.81.1-.16.36-.26.57-.26.41,0,.72.31.72.72,0,.16-.1.41-.21.52-1.55,1.71-4.4,4.09-7.14,5.23-.9.37-1.78.63-2.62.63-.47,0-.92-.08-1.36-.26-1.24-.52-2.02-1.81-2.17-3.78-.04-.47-.06-.95-.06-1.44,0-3.37.89-7.06,1.97-10.36h-3.67c-.41,0-.78-.36-.78-.78s.36-.72.78-.72h4.19l.16-.47c1.5-4.14,3.05-7.25,3.05-7.25.1-.21.41-.41.67-.41Z"/>
    <path class="st18" d="M316.52,605.01c.41,0,.67.31.67.72v.26s-1.6,5.12-2.54,10.61c-.41,2.39-.69,4.85-.69,6.92,0,.31,0,.61.02.9.05,1.14.21,2.12.47,2.85s.62,1.19,1.04,1.45c.16.1.33.14.54.14.34,0,.75-.12,1.27-.35.83-.36,1.76-1.04,2.59-1.76,1.71-1.45,3.05-3.11,3.05-3.11.1-.16.36-.26.57-.26.41,0,.72.31.72.72,0,.16-.05.36-.16.47,0,0-1.45,1.76-3.26,3.31-.93.78-1.86,1.5-2.9,1.97-.59.27-1.24.45-1.86.45-.47,0-.93-.1-1.35-.34-.83-.47-1.29-1.29-1.66-2.23s-.52-2.02-.57-3.26c-.01-.32-.02-.66-.02-1,0-1.02.06-2.11.17-3.2-.47,1.4-.98,2.74-1.45,3.93-.93,2.33-1.71,4.09-2.59,5.02-.52.52-1.24.93-1.92,1.09-.2.04-.4.07-.6.07-.49,0-.98-.14-1.42-.43-.62-.41-.98-1.19-.98-2.12s.26-2.07.88-3.47l.05-.05c.78-1.35,1.5-2.12,2.33-2.54.37-.19.76-.27,1.12-.27.44,0,.85.12,1.16.32.41.26.72.57.98.88.78-2.07,1.6-4.45,2.38-6.78,1.76-5.33,3.16-10.35,3.16-10.35v-.05c.1-.31.41-.52.72-.52h.05ZM308.03,622.97c-.1,0-.31.05-.47.16-.41.21-.98.67-1.66,1.86-.57,1.24-.72,2.17-.72,2.79s.21.88.36.98.47.21.83.1.78-.31,1.14-.67c.41-.41,1.24-1.92,2.02-3.83-.05-.05-.52-.93-1.09-1.24-.16-.1-.21-.16-.36-.16h-.05Z"/>
    <path class="st18" d="M326.51,621.52h.16c.21,0,.41.05.62.1.83.21,1.55.67,1.76,1.45.1.41,0,.88-.26,1.24s-.67.57-1.14.72c-.37.11-.8.16-1.3.16-.71,0-1.57-.11-2.63-.32-.62.78-1.14,1.6-1.24,2.23-.1.52,0,.83.36,1.14s1.19.57,2.59.57c2.28,0,4.66-1.29,6.47-2.59s2.95-2.64,2.95-2.64c.1-.16.36-.21.57-.21.41,0,.72.31.72.72,0,.16-.1.41-.21.52,0,0-1.29,1.4-3.21,2.79s-4.5,2.9-7.3,2.9c-1.6,0-2.79-.31-3.57-.93-.62-.5-.88-1.25-.88-1.99,0-.19.02-.37.05-.55.31-1.81,1.81-3.57,3.47-4.66.67-.47,1.35-.67,2.02-.67ZM326.61,623.02c-.36,0-.83.1-1.29.41-.1.05-.16.16-.26.21.4.06.76.08,1.07.08.53,0,.93-.07,1.16-.13.21-.05.26-.1.31-.16-.05-.05-.26-.26-.67-.36-.1,0-.21-.05-.31-.05Z"/>
    <path class="st18" d="M335.53,623.38c.41,0,.72.31.72.72v.05c-.05.83-.21,1.7-.21,2.47,0,.09,0,.19,0,.28.05.83.21,1.4.88,1.76.3.16.69.25,1.15.25.43,0,.91-.08,1.44-.25,1.09-.36,2.38-1.04,3.52-1.81,2.33-1.5,4.19-3.26,4.19-3.26.1-.1.36-.21.52-.21.41,0,.72.31.72.72,0,.21-.05.47-.21.57,0,0-2.02,1.81-4.45,3.42-1.24.78-2.54,1.55-3.83,1.97-.66.21-1.35.36-2.02.36s-1.25-.13-1.81-.46c-1.19-.67-1.55-1.92-1.6-3,0-.12,0-.24,0-.36,0-.96.17-1.85.21-2.54,0-.41.36-.67.78-.67ZM336.25,618.57c.41,0,.72.31.72.72,0,.05-.05.21-.05.26l-.41,1.24c-.1.31-.36.52-.67.52-.41,0-.78-.31-.78-.72,0-.05.05-.21.05-.26l.41-1.24c.1-.31.41-.52.72-.52Z"/>
    <path class="st18" d="M353.07,621.94h.1c.16,0,.31.1.41.16.41.21.57.57.67.88s.16.67.21,1.04c.05.72.05,1.6.1,2.38s.1,1.55.26,2.02c.1.21.16.36.21.41s.1.05.26.05c1.04,0,2.64-1.14,3.88-2.48s2.07-2.69,2.07-2.69c.1-.21.41-.31.62-.31.41,0,.78.31.78.72,0,.1-.1.31-.16.41,0,0-.88,1.4-2.23,2.85s-3.05,3-4.97,3c-.47,0-.93-.21-1.24-.47s-.47-.67-.62-1.04c-.26-.72-.31-1.6-.36-2.43s0-1.66-.05-2.28c0-.21-.05-.41-.1-.57-.1.1-.26.26-.41.47-.47.62-1.09,1.55-1.66,2.48s-1.19,1.92-1.71,2.64c-.26.36-.52.62-.83.88-.16.1-.31.26-.52.31s-.57.05-.83-.1c-.36-.21-.47-.52-.57-.83s-.16-.62-.16-.93c0-.62.16-1.35.26-2.02.26-1.35.62-2.59.62-2.59.1-.31.41-.52.72-.52.41,0,.72.31.72.72,0,.05-.05.16-.05.21,0,0-.31,1.19-.57,2.43-.1.62-.21,1.29-.21,1.76v.05c.05-.1.16-.16.21-.26.47-.62,1.09-1.6,1.66-2.54s1.19-1.92,1.76-2.64c.31-.36.57-.67.88-.88.16-.1.36-.21.57-.26.1,0,.16-.05.26-.05Z"/>
    <path class="st18" d="M364.92,621.52h.16c.21,0,.41.05.62.1.83.21,1.55.67,1.76,1.45.1.41,0,.88-.26,1.24s-.67.57-1.14.72c-.37.11-.8.16-1.3.16-.71,0-1.57-.11-2.63-.32-.62.78-1.14,1.6-1.24,2.23-.1.52,0,.83.36,1.14s1.19.57,2.59.57c2.28,0,4.66-1.29,6.47-2.59s2.95-2.64,2.95-2.64c.1-.16.36-.21.57-.21.41,0,.72.31.72.72,0,.16-.1.41-.21.52,0,0-1.29,1.4-3.21,2.79s-4.5,2.9-7.3,2.9c-1.6,0-2.79-.31-3.57-.93-.62-.5-.88-1.25-.88-1.99,0-.19.02-.37.05-.55.31-1.81,1.81-3.57,3.47-4.66.67-.47,1.35-.67,2.02-.67ZM365.02,623.02c-.36,0-.83.1-1.29.41-.1.05-.16.16-.26.21.4.06.76.08,1.07.08.53,0,.93-.07,1.16-.13.21-.05.26-.1.31-.16-.05-.05-.26-.26-.67-.36-.1,0-.21-.05-.31-.05Z"/>
    <path class="st18" d="M377.98,621.83h.1c.1,0,.26.1.36.16.93.52,1.19,1.4,1.45,2.02s.47.98,1.09,1.19c.09.02.2.04.33.04.68,0,1.81-.32,2.72-.71,1.14-.52,1.97-1.04,1.97-1.04.1-.05.31-.1.41-.1.41,0,.72.31.72.72,0,.21-.16.52-.36.62,0,0-.93.62-2.17,1.14-.98.41-2.1.88-3.19.88-.29,0-.57-.03-.85-.11h-.05c-1.14-.36-1.66-1.35-1.97-2.07-.26-.62-.41-.98-.67-1.19-.1.1-.31.26-.52.52-.47.57-1.04,1.45-1.55,2.33-1.09,1.81-2.02,3.73-2.02,3.73-.1.21-.41.41-.67.41-.1,0-.26-.05-.36-.1-.36-.21-.52-.57-.62-.88s-.05-.62-.05-.93c0-.62.16-1.35.31-2.02.31-1.35.83-2.59.83-2.59.1-.26.36-.47.67-.47.41,0,.72.31.72.72,0,.05,0,.21-.05.26,0,0-.36,1.04-.67,2.17.21-.36.41-.67.62-1.04.57-.93,1.14-1.86,1.71-2.54.31-.36.62-.67.93-.88.21-.16.52-.26.83-.26Z"/>
    <path class="st18" d="M427.14,601.23h.83c1.45.05,2.9.16,4.19.36,2.64.41,4.92,1.19,6.62,2.54,1.75,1.38,2.85,3.32,2.85,5.82,0,4.46-3.75,9.45-8.9,13.33-4.35,3.26-9.78,5.69-15.01,6.06-.05.41-.16.78-.21,1.19,3.11,3.21,9.58,8.7,18.06,10.46.31.05.57.36.57.72,0,.41-.31.72-.72.72h-.16c-8.18-1.71-14.49-6.68-18.01-10.09-.38,2.76-.6,5.36-.6,7.38,0,.7.03,1.34.08,1.89v.1c0,.41-.31.72-.72.72-.36,0-.72-.31-.78-.67-.07-.62-.11-1.3-.11-2.05,0-2.44.35-5.5.83-8.71-1.14-1.24-1.76-2.02-1.76-2.02-.1-.1-.16-.26-.16-.41,0-.41.31-.78.72-.78h.05c.52.05,1.09.1,1.6.1.26-1.55.52-3.05.83-4.55,1.29-6.62,2.69-12.27,2.69-12.27.05-.31.41-.57.72-.57.41,0,.72.36.72.78v.16s-1.4,5.64-2.69,12.21c-.26,1.35-.47,2.79-.72,4.19,4.76-.41,9.78-2.69,13.87-5.75,4.9-3.67,8.33-8.5,8.33-12.11,0-2.07-.8-3.55-2.28-4.66s-3.52-1.86-6-2.28c-1.43-.22-2.99-.33-4.61-.33-4.01,0-8.45.65-12.57,1.83-5.8,1.66-10.87,4.35-13.04,7.19-.79,1.06-1.2,2.06-1.2,3.11,0,.39.06.78.17,1.18.41,1.5,1.71,3.16,4.3,4.87.21.1.31.41.31.62,0,.41-.31.72-.72.72-.1,0-.31-.05-.41-.1-2.74-1.81-4.35-3.73-4.92-5.69-.14-.5-.21-1-.21-1.49,0-1.46.59-2.88,1.56-4.15,2.59-3.36,7.82-5.95,13.77-7.66,4.19-1.19,8.7-1.92,12.84-1.92Z"/>
    <path class="st18" d="M445.65,621.16c.41,0,.78.36.78.78,0,.05-.05.1-.05.16v.05c0,.05-.05.1-.05.16-.05.1-.05.21-.1.31-.72,2.19-1,3.8-1,4.8,0,.3.03.54.07.74.1.47.31.57.47.67s.47.16.93.05c.88-.21,2.17-.88,3.47-1.86s2.54-2.23,3.47-3.36c.1-.16.36-.26.57-.26.41,0,.78.31.78.72,0,.16-.1.36-.21.47-.98,1.24-2.33,2.54-3.73,3.57s-2.79,1.92-4.09,2.17c-.24.06-.48.08-.7.08-.41,0-.79-.09-1.16-.29-.57-.31-1.04-.88-1.19-1.6-.1-.4-.16-.85-.16-1.35,0-.28.02-.57.05-.88-.16.21-.26.31-.41.52-.72.88-1.5,1.76-2.17,2.38-.36.31-.67.62-.98.83s-.62.41-1.09.36c-.31,0-.67-.16-.88-.41s-.36-.57-.41-.83c-.02-.13-.03-.26-.03-.39,0-.44.12-.89.24-1.37.36-1.29,1.09-2.79,2.07-4.14.85-1.19,1.87-1.61,2.72-1.61.19,0,.37.02.54.06.62.1,1.09.41,1.35.62.1-.26.21-.47.21-.52s.05-.05.05-.1c.1-.26.41-.52.67-.52ZM442.75,623.07c-.36,0-.83.21-1.45,1.04-.88,1.19-1.55,2.59-1.86,3.62-.1.47-.1.88-.1,1.09.05,0,0,0,.05-.05.21-.1.47-.36.78-.62.62-.57,1.4-1.4,2.07-2.28.62-.78,1.24-1.6,1.71-2.33l-.05-.05s-.31-.26-.78-.36c-.1,0-.26-.05-.36-.05ZM442.67,617.43c.41,0,.72.31.72.72,0,.05-.05.21-.05.26l-.41,1.24c-.1.31-.36.52-.67.52-.41,0-.78-.31-.78-.72,0-.05.05-.21.05-.26l.41-1.24c.1-.31.41-.52.72-.52ZM445.21,617.43c.41,0,.72.31.72.72,0,.05-.05.21-.05.26l-.41,1.24c-.1.31-.36.52-.67.52-.41,0-.78-.31-.78-.72,0-.05.05-.21.05-.26l.41-1.24c.1-.31.41-.52.72-.52Z"/>
    <path class="st18" d="M461.46,622.61c.41,0,.72.31.72.72v.21c-.4,1.46-.54,2.6-.54,3.42,0,.58.07,1.01.18,1.29.16.36.26.47.47.57s.52.16.98.05c1.76-.36,4.92-2.69,7.3-5.28.1-.16.31-.21.52-.21.41,0,.78.31.78.72,0,.16-.1.41-.21.52-2.48,2.74-5.54,5.18-8.07,5.69-.24.04-.49.06-.74.06-.39,0-.78-.06-1.13-.22-.57-.26-1.04-.72-1.29-1.35-.19-.5-.3-1.11-.3-1.82,0-.25.01-.5.04-.77-1.14,1.29-2.64,2.74-4.4,3.73-.52.26-.98.41-1.45.41s-.88-.31-1.14-.67c-.32-.49-.42-1.01-.42-1.55,0-.25.02-.51.06-.78.16-1.66.78-3.47.78-3.47.1-.31.36-.52.67-.52.41,0,.78.31.78.72,0,.05-.05.16-.05.21,0,0-.52,1.81-.67,3.21-.05.72.05,1.29.1,1.4.05,0,.26-.05.62-.26,3.16-1.76,5.8-5.75,5.8-5.75.1-.21.41-.31.62-.31Z"/>
    <path class="st18" d="M483.61,621.99h.05c.05,0,.21,0,.26.05.26.1.41.26.52.47s.16.36.16.52c.05.31,0,.67-.05.98-.1.67-.31,1.4-.41,2.17-.06.43-.1.82-.1,1.17,0,.29.03.54.1.75.16.47.31.67.93.78.11.02.24.03.37.03.52,0,1.15-.17,1.81-.5.83-.41,1.66-1.09,2.43-1.81,1.55-1.4,2.69-2.95,2.69-2.95.1-.16.36-.26.57-.26.41,0,.72.31.72.72,0,.16-.05.36-.16.47,0,0-1.19,1.6-2.85,3.11-.83.78-1.76,1.5-2.74,2.02-.79.42-1.65.73-2.52.73-.21,0-.42-.02-.64-.06-1.09-.21-1.76-1.04-2.02-1.86-.12-.39-.16-.78-.16-1.18,0-.46.05-.91.11-1.36.1-.67.21-1.29.31-1.81l-.05.05c-.52.62-1.24,1.55-1.92,2.48s-1.4,1.86-2.02,2.54c-.31.36-.62.67-.93.88-.16.1-.31.21-.52.26s-.52,0-.78-.1c-.36-.16-.62-.47-.72-.78s-.16-.57-.21-.88c-.02-.21-.02-.42-.02-.64,0-.43.02-.88.02-1.33s.02-.9.02-1.28c0-.19,0-.37-.02-.53,0-.21-.05-.31-.1-.41-.1.1-.21.26-.36.41-.41.52-.98,1.35-1.5,2.17s-1.04,1.71-1.55,2.33c-.26.31-.47.57-.78.78-.16.1-.31.21-.52.26s-.52.05-.78-.1c-.36-.21-.47-.57-.57-.88s-.1-.62-.1-.93c0-.62.1-1.29.26-1.97.31-1.35.72-2.59.72-2.59.1-.26.36-.52.67-.52.41,0,.78.31.78.72,0,.05-.05.21-.05.26,0,0-.41,1.19-.67,2.43-.16.62-.26,1.24-.26,1.71v.05l.16-.16c.41-.52.93-1.4,1.45-2.23s1.09-1.66,1.6-2.28c.26-.31.52-.62.83-.83s.83-.36,1.29-.1c.67.36.88,1.09.93,1.71s.05,1.35.05,2.02c0,.45-.02.87-.02,1.25,0,.19,0,.36.02.51,0,.16.05.21.05.31.16-.1.31-.31.52-.52.57-.62,1.24-1.5,1.92-2.43s1.35-1.81,1.97-2.54c.31-.36.62-.67.88-.88.16-.1.26-.21.47-.31.1-.05.26-.1.47-.1Z"/>
    <path class="st18" d="M496.03,621.52h.16c.21,0,.41.05.62.1.83.21,1.55.67,1.76,1.45.1.41,0,.88-.26,1.24s-.67.57-1.14.72c-.37.11-.8.16-1.3.16-.71,0-1.57-.11-2.63-.32-.62.78-1.14,1.6-1.24,2.23-.1.52,0,.83.36,1.14s1.19.57,2.59.57c2.28,0,4.66-1.29,6.47-2.59s2.95-2.64,2.95-2.64c.1-.16.36-.21.57-.21.41,0,.72.31.72.72,0,.16-.1.41-.21.52,0,0-1.29,1.4-3.21,2.79s-4.5,2.9-7.3,2.9c-1.6,0-2.79-.31-3.57-.93-.62-.5-.88-1.25-.88-1.99,0-.19.02-.37.05-.55.31-1.81,1.81-3.57,3.47-4.66.67-.47,1.35-.67,2.02-.67ZM496.13,623.02c-.36,0-.83.1-1.29.41-.1.05-.16.16-.26.21.4.06.76.08,1.07.08.53,0,.93-.07,1.16-.13.21-.05.26-.1.31-.16-.05-.05-.26-.26-.67-.36-.1,0-.21-.05-.31-.05Z"/>
  </g>
  <g class="st19">
    <rect class="st2" x="83.9" y="75.2" width="407.59" height="433.05" transform="translate(-111.04 197.48) rotate(-32.1)"/>
  </g>
  <g class="st10">
    <rect class="st3" x="194.19" y="225.21" width="170.85" height="178.66" transform="translate(-124.4 196.68) rotate(-32.1)"/>
  </g>
  <g class="st13">
    <rect class="st5" x="224.15" y="266.83" width="31.31" height="31.79" transform="translate(-113.58 170.65) rotate(-32.1)"/>
  </g>
  <g class="st11">
    <rect class="st4" x="293" y="274.14" width="32.36" height="30.01" transform="translate(-106.38 208.5) rotate(-32.1)"/>
  </g>
  <g class="st12">
    <rect class="st9" x="247.24" y="244.84" width="33.02" height="34.43" transform="translate(-98.93 180.22) rotate(-32.1)"/>
  </g>
  <g class="st16">
    <rect class="st7" x="259.94" y="221.29" width="37.41" height="39.66" transform="translate(-85.53 184.93) rotate(-32.1)"/>
  </g>
  <g class="st15">
    <rect class="st8" x="306.74" y="289.55" width="34.81" height="29.65" transform="translate(-112.19 218.78) rotate(-32.1)"/>
  </g>
  <g class="st14">
    <rect class="st6" x="146.66" y="140.63" width="270.49" height="270.7" transform="translate(-103.56 192) rotate(-32.1)"/>
  </g>
  <path class="st18" d="M287.39,532.48c2.34,0,4.24-1.9,4.24-4.24s-1.9-4.24-4.24-4.24-4.24,1.9-4.24,4.24,1.9,4.24,4.24,4.24"/>
</svg>