<?xml version="1.0" encoding="UTF-8"?>
<svg id="Ebene_1" xmlns="http://www.w3.org/2000/svg" version="1.1" viewBox="0 0 438.1 42.41">
  <!-- Generator: Adobe Illustrator 30.6.0, SVG Export Plug-In . SVG Version: 2.1.4 Build 109)  -->
  <defs>
    <style>
      .st0 {
        fill: #c7b5a3;
      }
    </style>
  </defs>
  <path class="st0" d="M31.52,0c.41,0,.78.31.78.72,0,.05-.05.21-.05.26-5.18,16.46-6.62,26.34-9.11,37.37-.36,1.6-.72,2.64-1.4,3.26-.31.31-.83.52-1.29.41s-.83-.41-1.14-.72c-1.19-1.35-2.07-3.99-3.05-7.5-1.92-7.04-3.62-17.13-4.09-23.6-.31-3.11-.72-5.12-1.14-6.16-.21-.52-.41-.72-.47-.78l-.05-.05-.05.05c-.26.16-.98,1.19-1.6,2.69s-1.29,3.47-1.97,5.8c-2.64,9.26-5.02,23.39-5.38,29.66,0,.41-.31.67-.72.67s-.78-.31-.78-.72l.05-.05c.36-6.47,2.79-20.5,5.43-29.92.67-2.33,1.35-4.45,2.02-6.06s1.24-2.74,2.17-3.31c.23-.16.52-.23.81-.23s.59.08.85.23c.52.31.83.78,1.09,1.45.52,1.35.93,3.42,1.24,6.57v.05c.47,6.31,2.12,16.41,3.99,23.29.93,3.47,2.02,6.16,2.74,6.94.16.16.31.21.31.21.21-.16.62-1.04.98-2.54,2.48-10.97,3.93-20.91,9.16-37.47.1-.31.36-.52.67-.52Z"/>
  <path class="st0" d="M40.02,22.26c.41,0,.72.31.72.72v.21c-.4,1.46-.54,2.6-.54,3.42,0,.58.07,1.01.18,1.29.16.36.26.47.47.57s.52.16.98.05c1.76-.36,4.92-2.69,7.3-5.28.1-.16.31-.21.52-.21.41,0,.78.31.78.72,0,.16-.1.41-.21.52-2.48,2.74-5.54,5.18-8.07,5.69-.24.04-.49.06-.74.06-.39,0-.78-.06-1.13-.22-.57-.26-1.04-.72-1.29-1.35-.19-.5-.3-1.11-.3-1.82,0-.25.01-.5.04-.77-1.14,1.29-2.64,2.74-4.4,3.73-.52.26-.98.41-1.45.41s-.88-.31-1.14-.67c-.32-.49-.42-1.01-.42-1.55,0-.25.02-.51.06-.78.16-1.66.78-3.47.78-3.47.1-.31.36-.52.67-.52.41,0,.78.31.78.72,0,.05-.05.16-.05.21,0,0-.52,1.81-.67,3.21-.05.72.05,1.29.1,1.4.05,0,.26-.05.62-.26,3.16-1.76,5.8-5.75,5.8-5.75.1-.21.41-.31.62-.31Z"/>
  <path class="st0" d="M55.59,4.66c.41,0,.72.31.72.72,0,.1,0,.26-.05.36,0,0-1.55,3-3,7.04h5.69c.41,0,.72.31.72.72s-.31.78-.72.78h-6.21c-1.1,3.33-2.07,7.16-2.07,10.43,0,.43.02.86.05,1.27.16,1.66.67,2.23,1.29,2.48.22.09.48.14.79.14.57,0,1.28-.16,2.06-.5,2.38-.98,5.23-3.26,6.62-4.81.1-.16.36-.26.57-.26.41,0,.72.31.72.72,0,.16-.1.41-.21.52-1.55,1.71-4.4,4.09-7.14,5.23-.9.37-1.78.63-2.62.63-.47,0-.92-.08-1.36-.26-1.24-.52-2.02-1.81-2.17-3.78-.04-.47-.06-.95-.06-1.44,0-3.37.89-7.06,1.97-10.36h-3.67c-.41,0-.78-.36-.78-.78s.36-.72.78-.72h4.19l.16-.47c1.5-4.14,3.05-7.25,3.05-7.25.1-.21.41-.41.67-.41Z"/>
  <path class="st0" d="M68.58,21.17c.36,0,.67.05,1.04.21.47.21.88.67.88,1.24s-.26,1.04-.67,1.6c-1.09,1.5-2.95,2.9-4.55,3.93-.21.16-.36.26-.57.36h3.05c2.12,0,5.02-1.29,7.3-2.64s4.04-2.69,4.04-2.69c.1-.1.31-.16.47-.16.41,0,.72.31.72.72,0,.21-.16.47-.31.57,0,0-1.76,1.45-4.14,2.85s-5.38,2.85-8.07,2.85h-5.85c-.41,0-.72-.31-.72-.72,0-.26.21-.57.41-.67,0,0,1.29-.72,2.85-1.71s3.31-2.33,4.14-3.52c.26-.36.36-.57.41-.67-.09-.02-.24-.03-.43-.03-.39,0-.97.05-1.59.18-2.02.47-4.5,1.45-4.5,1.45-.05.05-.21.05-.31.05-.41,0-.72-.36-.72-.78,0-.26.21-.57.47-.67,0,0,2.48-1.04,4.71-1.5.67-.16,1.35-.26,1.97-.26Z"/>
  <path class="st0" d="M82.61,21.17h.16c.21,0,.41.05.62.1.83.21,1.55.67,1.76,1.45.1.41,0,.88-.26,1.24s-.67.57-1.14.72c-.37.11-.8.16-1.3.16-.71,0-1.57-.11-2.63-.32-.62.78-1.14,1.6-1.24,2.23-.1.52,0,.83.36,1.14s1.19.57,2.59.57c2.28,0,4.66-1.29,6.47-2.59s2.95-2.64,2.95-2.64c.1-.16.36-.21.57-.21.41,0,.72.31.72.72,0,.16-.1.41-.21.52,0,0-1.29,1.4-3.21,2.79s-4.5,2.9-7.3,2.9c-1.6,0-2.79-.31-3.57-.93-.62-.5-.88-1.25-.88-1.99,0-.19.02-.37.05-.55.31-1.81,1.81-3.57,3.47-4.66.67-.47,1.35-.67,2.02-.67ZM82.71,22.67c-.36,0-.83.1-1.29.41-.1.05-.16.16-.26.21.4.06.76.08,1.07.08.53,0,.93-.07,1.16-.13.21-.05.26-.1.31-.16-.05-.05-.26-.26-.67-.36-.1,0-.21-.05-.31-.05Z"/>
  <path class="st0" d="M115.37,4.66c.41,0,.67.31.67.72v.26s-1.6,5.12-2.54,10.61c-.41,2.39-.69,4.85-.69,6.92,0,.31,0,.61.02.9.05,1.14.21,2.12.47,2.85s.62,1.19,1.04,1.45c.16.1.33.14.54.14.34,0,.75-.12,1.27-.35.83-.36,1.76-1.04,2.59-1.76,1.71-1.45,3.05-3.11,3.05-3.11.1-.16.36-.26.57-.26.41,0,.72.31.72.72,0,.16-.05.36-.16.47,0,0-1.45,1.76-3.26,3.31-.93.78-1.86,1.5-2.9,1.97-.59.27-1.24.45-1.86.45-.47,0-.93-.1-1.35-.34-.83-.47-1.29-1.29-1.66-2.23s-.52-2.02-.57-3.26c-.01-.32-.02-.66-.02-1,0-1.02.06-2.11.17-3.2-.47,1.4-.98,2.74-1.45,3.93-.93,2.33-1.71,4.09-2.59,5.02-.52.52-1.24.93-1.92,1.09-.2.04-.4.07-.6.07-.49,0-.98-.14-1.42-.43-.62-.41-.98-1.19-.98-2.12s.26-2.07.88-3.47l.05-.05c.78-1.35,1.5-2.12,2.33-2.54.37-.19.76-.27,1.12-.27.44,0,.85.12,1.16.32.41.26.72.57.98.88.78-2.07,1.6-4.45,2.38-6.78,1.76-5.33,3.16-10.35,3.16-10.35v-.05c.1-.31.41-.52.72-.52h.05ZM106.89,22.62c-.1,0-.31.05-.47.16-.41.21-.98.67-1.66,1.86-.57,1.24-.72,2.17-.72,2.79s.21.88.36.98.47.21.83.1.78-.31,1.14-.67c.41-.41,1.24-1.92,2.02-3.83-.05-.05-.52-.93-1.09-1.24-.16-.1-.21-.16-.36-.16h-.05Z"/>
  <path class="st0" d="M122.47,23.03c.41,0,.72.31.72.72v.05c-.05.83-.22,1.7-.22,2.47,0,.09,0,.19,0,.28.05.83.21,1.4.88,1.76.3.16.69.25,1.15.25.43,0,.92-.08,1.44-.25,1.09-.36,2.38-1.04,3.52-1.81,2.33-1.5,4.19-3.26,4.19-3.26.1-.1.36-.21.52-.21.41,0,.72.31.72.72,0,.21-.05.47-.21.57,0,0-2.02,1.81-4.45,3.42-1.24.78-2.54,1.55-3.83,1.97-.66.21-1.35.36-2.02.36s-1.25-.13-1.81-.46c-1.19-.67-1.55-1.92-1.6-3,0-.12,0-.24,0-.36,0-.96.17-1.85.22-2.54,0-.41.36-.67.78-.67ZM123.2,18.22c.41,0,.72.31.72.72,0,.05-.05.21-.05.26l-.41,1.24c-.1.31-.36.52-.67.52-.41,0-.78-.31-.78-.72,0-.05.05-.21.05-.26l.41-1.24c.1-.31.41-.52.72-.52Z"/>
  <path class="st0" d="M137.73,21.17h.16c.21,0,.41.05.62.1.83.21,1.55.67,1.76,1.45.1.41,0,.88-.26,1.24s-.67.57-1.14.72c-.37.11-.8.16-1.3.16-.71,0-1.57-.11-2.63-.32-.62.78-1.14,1.6-1.24,2.23-.1.52,0,.83.36,1.14s1.19.57,2.59.57c2.28,0,4.66-1.29,6.47-2.59s2.95-2.64,2.95-2.64c.1-.16.36-.21.57-.21.41,0,.72.31.72.72,0,.16-.1.41-.21.52,0,0-1.29,1.4-3.21,2.79s-4.5,2.9-7.3,2.9c-1.6,0-2.79-.31-3.57-.93-.62-.5-.88-1.25-.88-1.99,0-.19.02-.37.05-.55.31-1.81,1.81-3.57,3.47-4.66.67-.47,1.35-.67,2.02-.67ZM137.84,22.67c-.36,0-.83.1-1.29.41-.1.05-.16.16-.26.21.4.06.76.08,1.07.08.53,0,.93-.07,1.16-.13.21-.05.26-.1.31-.16-.05-.05-.26-.26-.67-.36-.1,0-.21-.05-.31-.05Z"/>
  <path class="st0" d="M166.3,0c.41,0,.78.31.78.72,0,.05-.05.1-.05.16,0,0-1.76,8.13-3.47,17.29-.67,3.57-1.35,7.3-1.86,10.71,3.31-5.07,14.18-21.07,23.24-28.73.1-.1.31-.16.47-.16h.05c.41,0,.72.31.72.72,0,.21-.1.47-.26.57-9.99,8.44-22.41,27.54-23.55,29.35.88.52,4.19,2.54,8.28,4.81,2.33,1.29,4.76,2.59,6.78,3.57.98.47,1.86.93,2.59,1.19s1.29.36,1.45.36c.41,0,.72.36.72.78s-.31.72-.72.72c-.57,0-1.19-.21-1.97-.52s-1.71-.67-2.74-1.19c-2.07-.98-4.5-2.33-6.83-3.62-4.09-2.28-7.66-4.45-8.59-5.02-.44,3.18-.69,6.03-.69,8,0,.59.02,1.1.07,1.52v.1c0,.41-.36.72-.78.72-.36,0-.67-.31-.72-.67-.06-.53-.09-1.14-.09-1.82,0-2.11.28-4.9.71-8.07.57-4.19,1.4-9.01,2.23-13.61,1.71-9.16,3.52-17.34,3.52-17.34.05-.31.41-.57.72-.57Z"/>
  <path class="st0" d="M179.26,21.48h.1c.1,0,.26.1.36.16.93.52,1.19,1.4,1.45,2.02s.47.98,1.09,1.19c.09.02.2.04.33.04.68,0,1.81-.32,2.72-.71,1.14-.52,1.97-1.04,1.97-1.04.1-.05.31-.1.41-.1.41,0,.72.31.72.72,0,.21-.16.52-.36.62,0,0-.93.62-2.17,1.14-.98.41-2.1.88-3.19.88-.29,0-.57-.03-.85-.11h-.05c-1.14-.36-1.66-1.35-1.97-2.07-.26-.62-.41-.98-.67-1.19-.1.1-.31.26-.52.52-.47.57-1.04,1.45-1.55,2.33-1.09,1.81-2.02,3.73-2.02,3.73-.1.21-.41.41-.67.41-.1,0-.26-.05-.36-.1-.36-.21-.52-.57-.62-.88s-.05-.62-.05-.93c0-.62.16-1.35.31-2.02.31-1.35.83-2.59.83-2.59.1-.26.36-.47.67-.47.41,0,.72.31.72.72,0,.05,0,.21-.05.26,0,0-.36,1.04-.67,2.17.21-.36.41-.67.62-1.04.57-.93,1.14-1.86,1.71-2.54.31-.36.62-.67.93-.88.21-.16.52-.26.83-.26Z"/>
  <path class="st0" d="M193.05,20.81c.41,0,.78.36.78.78,0,.05-.05.1-.05.16v.05c0,.05-.05.1-.05.16-.05.1-.05.21-.1.31-.72,2.19-1.01,3.8-1.01,4.8,0,.3.03.54.07.74.1.47.31.57.47.67s.47.16.93.05c.88-.21,2.17-.88,3.47-1.86s2.54-2.23,3.47-3.36c.1-.16.36-.26.57-.26.41,0,.78.31.78.72,0,.16-.1.36-.21.47-.98,1.24-2.33,2.54-3.73,3.57s-2.79,1.92-4.09,2.17c-.24.06-.48.08-.7.08-.41,0-.79-.09-1.16-.29-.57-.31-1.04-.88-1.19-1.6-.1-.4-.16-.85-.16-1.35,0-.28.02-.57.05-.88-.16.21-.26.31-.41.52-.72.88-1.5,1.76-2.17,2.38-.36.31-.67.62-.98.83s-.62.41-1.09.36c-.31,0-.67-.16-.88-.41s-.36-.57-.41-.83c-.02-.13-.03-.26-.03-.39,0-.44.12-.89.24-1.37.36-1.29,1.09-2.79,2.07-4.14.85-1.19,1.87-1.61,2.72-1.61.19,0,.37.02.54.06.62.1,1.09.41,1.35.62.1-.26.21-.47.21-.52s.05-.05.05-.1c.1-.26.41-.52.67-.52ZM190.15,22.72c-.36,0-.83.21-1.45,1.04-.88,1.19-1.55,2.59-1.86,3.62-.1.47-.1.88-.1,1.09.05,0,0,0,.05-.05.21-.1.47-.36.78-.62.62-.57,1.4-1.4,2.07-2.28.62-.78,1.24-1.6,1.71-2.33l-.05-.05s-.31-.26-.78-.36c-.1,0-.26-.05-.36-.05Z"/>
  <path class="st0" d="M207.41,4.66c.41,0,.72.31.72.72,0,.1,0,.21-.05.31,0,0-1.5,3.62-3.05,8.44-1.24,3.93-2.54,8.7-3,12.84,1.04-.41,1.35-.57,2.85-1.19,2.9-1.14,6.06-2.38,7.45-2.74h.21c.41,0,.78.31.78.72,0,.31-.26.62-.57.72-1.14.31-4.45,1.55-7.35,2.69-1.86.72-2.54.98-3.52,1.4,0,.36-.05.72-.05,1.09v.21c.05.1.16.21.21.31.72.98,1.5,2.23,2.07,3.57.48,1.13.81,2.42.81,3.69,0,.24-.01.48-.04.71-.16,1.5-.88,2.95-2.33,4.09-.05.05-.21.16-.26.16-.26.05-.62,0-.88-.16s-.36-.36-.47-.62c-.21-.47-.36-1.04-.47-1.97-.14-1.14-.21-2.83-.21-5.2,0-1.18.02-2.53.05-4.07-.47-.57-.88-.93-1.09-1.09-.16-.1-.31-.41-.31-.62,0-.26.21-.57.47-.67,0,0,.88-.36,1.04-.41.41-4.5,1.86-9.63,3.21-13.87,1.55-4.92,3.11-8.59,3.11-8.59.1-.26.41-.47.67-.47ZM201.76,32.4c0,.61-.01,1.18-.01,1.71,0,2.5.09,4.27.22,5.38.05.52.1.88.16,1.14.78-.83,1.19-1.66,1.29-2.64.02-.17.02-.34.02-.51,0-1.01-.25-2.11-.7-3.17-.26-.67-.62-1.29-.98-1.92Z"/>
  <path class="st0" d="M218.64,4.66c.41,0,.72.31.72.72,0,.1,0,.26-.05.36,0,0-1.55,3-3,7.04h5.69c.41,0,.72.31.72.72s-.31.78-.72.78h-6.21c-1.1,3.33-2.07,7.16-2.07,10.43,0,.43.02.86.05,1.27.16,1.66.67,2.23,1.29,2.48.22.09.48.14.79.14.57,0,1.28-.16,2.06-.5,2.38-.98,5.23-3.26,6.62-4.81.1-.16.36-.26.57-.26.41,0,.72.31.72.72,0,.16-.1.41-.21.52-1.55,1.71-4.4,4.09-7.14,5.23-.9.37-1.78.63-2.62.63-.47,0-.92-.08-1.36-.26-1.24-.52-2.02-1.81-2.17-3.78-.04-.47-.06-.95-.06-1.44,0-3.37.89-7.06,1.97-10.36h-3.67c-.41,0-.78-.36-.78-.78s.36-.72.78-.72h4.19l.16-.47c1.5-4.14,3.05-7.25,3.05-7.25.1-.21.41-.41.67-.41Z"/>
  <path class="st0" d="M248.97,4.66c.41,0,.67.31.67.72v.26s-1.6,5.12-2.54,10.61c-.41,2.39-.69,4.85-.69,6.92,0,.31,0,.61.02.9.05,1.14.21,2.12.47,2.85s.62,1.19,1.04,1.45c.16.1.33.14.54.14.34,0,.75-.12,1.27-.35.83-.36,1.76-1.04,2.59-1.76,1.71-1.45,3.05-3.11,3.05-3.11.1-.16.36-.26.57-.26.41,0,.72.31.72.72,0,.16-.05.36-.16.47,0,0-1.45,1.76-3.26,3.31-.93.78-1.86,1.5-2.9,1.97-.59.27-1.24.45-1.86.45-.47,0-.93-.1-1.35-.34-.83-.47-1.29-1.29-1.66-2.23s-.52-2.02-.57-3.26c-.01-.32-.02-.66-.02-1,0-1.02.06-2.11.17-3.2-.47,1.4-.98,2.74-1.45,3.93-.93,2.33-1.71,4.09-2.59,5.02-.52.52-1.24.93-1.92,1.09-.2.04-.4.07-.6.07-.49,0-.98-.14-1.42-.43-.62-.41-.98-1.19-.98-2.12s.26-2.07.88-3.47l.05-.05c.78-1.35,1.5-2.12,2.33-2.54.37-.19.76-.27,1.12-.27.44,0,.85.12,1.16.32.41.26.72.57.98.88.78-2.07,1.6-4.45,2.38-6.78,1.76-5.33,3.16-10.35,3.16-10.35v-.05c.1-.31.41-.52.72-.52h.05ZM240.48,22.62c-.1,0-.31.05-.47.16-.41.21-.98.67-1.66,1.86-.57,1.24-.72,2.17-.72,2.79s.21.88.36.98.47.21.83.1.78-.31,1.14-.67c.41-.41,1.24-1.92,2.02-3.83-.05-.05-.52-.93-1.09-1.24-.16-.1-.21-.16-.36-.16h-.05Z"/>
  <path class="st0" d="M258.96,21.17h.16c.21,0,.41.05.62.1.83.21,1.55.67,1.76,1.45.1.41,0,.88-.26,1.24s-.67.57-1.14.72c-.37.11-.8.16-1.3.16-.71,0-1.57-.11-2.63-.32-.62.78-1.14,1.6-1.24,2.23-.1.52,0,.83.36,1.14s1.19.57,2.59.57c2.28,0,4.66-1.29,6.47-2.59s2.95-2.64,2.95-2.64c.1-.16.36-.21.57-.21.41,0,.72.31.72.72,0,.16-.1.41-.21.52,0,0-1.29,1.4-3.21,2.79s-4.5,2.9-7.3,2.9c-1.6,0-2.79-.31-3.57-.93-.62-.5-.88-1.25-.88-1.99,0-.19.02-.37.05-.55.31-1.81,1.81-3.57,3.47-4.66.67-.47,1.35-.67,2.02-.67ZM259.06,22.67c-.36,0-.83.1-1.29.41-.1.05-.16.16-.26.21.4.06.76.08,1.07.08.53,0,.93-.07,1.16-.13.21-.05.26-.1.31-.16-.05-.05-.26-.26-.67-.36-.1,0-.21-.05-.31-.05Z"/>
  <path class="st0" d="M267.97,23.03c.41,0,.72.31.72.72v.05c-.05.83-.21,1.7-.21,2.47,0,.09,0,.19,0,.28.05.83.21,1.4.88,1.76.3.16.69.25,1.15.25.43,0,.91-.08,1.44-.25,1.09-.36,2.38-1.04,3.52-1.81,2.33-1.5,4.19-3.26,4.19-3.26.1-.1.36-.21.52-.21.41,0,.72.31.72.72,0,.21-.05.47-.21.57,0,0-2.02,1.81-4.45,3.42-1.24.78-2.54,1.55-3.83,1.97-.66.21-1.35.36-2.02.36s-1.25-.13-1.81-.46c-1.19-.67-1.55-1.92-1.6-3,0-.12,0-.24,0-.36,0-.96.17-1.85.21-2.54,0-.41.36-.67.78-.67ZM268.7,18.22c.41,0,.72.31.72.72,0,.05-.05.21-.05.26l-.41,1.24c-.1.31-.36.52-.67.52-.41,0-.78-.31-.78-.72,0-.05.05-.21.05-.26l.41-1.24c.1-.31.41-.52.72-.52Z"/>
  <path class="st0" d="M285.51,21.58h.1c.16,0,.31.1.41.16.41.21.57.57.67.88s.16.67.21,1.04c.05.72.05,1.6.1,2.38s.1,1.55.26,2.02c.1.21.16.36.21.41s.1.05.26.05c1.04,0,2.64-1.14,3.88-2.48s2.07-2.69,2.07-2.69c.1-.21.41-.31.62-.31.41,0,.78.31.78.72,0,.1-.1.31-.16.41,0,0-.88,1.4-2.23,2.85s-3.05,3-4.97,3c-.47,0-.93-.21-1.24-.47s-.47-.67-.62-1.04c-.26-.72-.31-1.6-.36-2.43s0-1.66-.05-2.28c0-.21-.05-.41-.1-.57-.1.1-.26.26-.41.47-.47.62-1.09,1.55-1.66,2.48s-1.19,1.92-1.71,2.64c-.26.36-.52.62-.83.88-.16.1-.31.26-.52.31s-.57.05-.83-.1c-.36-.21-.47-.52-.57-.83s-.16-.62-.16-.93c0-.62.16-1.35.26-2.02.26-1.35.62-2.59.62-2.59.1-.31.41-.52.72-.52.41,0,.72.31.72.72,0,.05-.05.16-.05.21,0,0-.31,1.19-.57,2.43-.1.62-.21,1.29-.21,1.76v.05c.05-.1.16-.16.21-.26.47-.62,1.09-1.6,1.66-2.54s1.19-1.92,1.76-2.64c.31-.36.57-.67.88-.88.16-.1.36-.21.57-.26.1,0,.16-.05.26-.05Z"/>
  <path class="st0" d="M297.36,21.17h.16c.21,0,.41.05.62.1.83.21,1.55.67,1.76,1.45.1.41,0,.88-.26,1.24s-.67.57-1.14.72c-.37.11-.8.16-1.3.16-.71,0-1.57-.11-2.63-.32-.62.78-1.14,1.6-1.24,2.23-.1.52,0,.83.36,1.14s1.19.57,2.59.57c2.28,0,4.66-1.29,6.47-2.59s2.95-2.64,2.95-2.64c.1-.16.36-.21.57-.21.41,0,.72.31.72.72,0,.16-.1.41-.21.52,0,0-1.29,1.4-3.21,2.79s-4.5,2.9-7.3,2.9c-1.6,0-2.79-.31-3.57-.93-.62-.5-.88-1.25-.88-1.99,0-.19.02-.37.05-.55.31-1.81,1.81-3.57,3.47-4.66.67-.47,1.35-.67,2.02-.67ZM297.47,22.67c-.36,0-.83.1-1.29.41-.1.05-.16.16-.26.21.4.06.76.08,1.07.08.53,0,.93-.07,1.16-.13.21-.05.26-.1.31-.16-.05-.05-.26-.26-.67-.36-.1,0-.21-.05-.31-.05Z"/>
  <path class="st0" d="M310.42,21.48h.1c.1,0,.26.1.36.16.93.52,1.19,1.4,1.45,2.02s.47.98,1.09,1.19c.09.02.2.04.33.04.68,0,1.81-.32,2.72-.71,1.14-.52,1.97-1.04,1.97-1.04.1-.05.31-.1.41-.1.41,0,.72.31.72.72,0,.21-.16.52-.36.62,0,0-.93.62-2.17,1.14-.98.41-2.1.88-3.19.88-.29,0-.57-.03-.85-.11h-.05c-1.14-.36-1.66-1.35-1.97-2.07-.26-.62-.41-.98-.67-1.19-.1.1-.31.26-.52.52-.47.57-1.04,1.45-1.55,2.33-1.09,1.81-2.02,3.73-2.02,3.73-.1.21-.41.41-.67.41-.1,0-.26-.05-.36-.1-.36-.21-.52-.57-.62-.88s-.05-.62-.05-.93c0-.62.16-1.35.31-2.02.31-1.35.83-2.59.83-2.59.1-.26.36-.47.67-.47.41,0,.72.31.72.72,0,.05,0,.21-.05.26,0,0-.36,1.04-.67,2.17.21-.36.41-.67.62-1.04.57-.93,1.14-1.86,1.71-2.54.31-.36.62-.67.93-.88.21-.16.52-.26.83-.26Z"/>
  <path class="st0" d="M359.59.88h.83c1.45.05,2.9.16,4.19.36,2.64.41,4.92,1.19,6.62,2.54,1.75,1.38,2.85,3.32,2.85,5.82,0,4.46-3.75,9.45-8.9,13.33-4.35,3.26-9.78,5.69-15.01,6.06-.05.41-.16.78-.21,1.19,3.11,3.21,9.58,8.7,18.06,10.46.31.05.57.36.57.72,0,.41-.31.72-.72.72h-.16c-8.18-1.71-14.49-6.68-18.01-10.09-.38,2.76-.6,5.36-.6,7.38,0,.7.03,1.34.08,1.89v.1c0,.41-.31.72-.72.72-.36,0-.72-.31-.78-.67-.07-.62-.11-1.3-.11-2.05,0-2.44.35-5.5.83-8.71-1.14-1.24-1.76-2.02-1.76-2.02-.1-.1-.16-.26-.16-.41,0-.41.31-.78.72-.78h.05c.52.05,1.09.1,1.6.1.26-1.55.52-3.05.83-4.55,1.29-6.62,2.69-12.27,2.69-12.27.05-.31.41-.57.72-.57.41,0,.72.36.72.78v.16s-1.4,5.64-2.69,12.21c-.26,1.35-.47,2.79-.72,4.19,4.76-.41,9.78-2.69,13.87-5.75,4.9-3.67,8.33-8.5,8.33-12.11,0-2.07-.8-3.55-2.28-4.66s-3.52-1.86-6-2.28c-1.43-.22-2.99-.33-4.61-.33-4.01,0-8.45.65-12.57,1.83-5.8,1.66-10.87,4.35-13.04,7.19-.79,1.06-1.2,2.06-1.2,3.11,0,.39.06.78.17,1.18.41,1.5,1.71,3.16,4.3,4.87.21.1.31.41.31.62,0,.41-.31.72-.72.72-.1,0-.31-.05-.41-.1-2.74-1.81-4.35-3.73-4.92-5.69-.14-.5-.21-1-.21-1.49,0-1.46.59-2.88,1.56-4.15,2.59-3.36,7.82-5.95,13.77-7.66,4.19-1.19,8.7-1.92,12.84-1.92Z"/>
  <path class="st0" d="M378.1,20.81c.41,0,.78.36.78.78,0,.05-.05.1-.05.16v.05c0,.05-.05.1-.05.16-.05.1-.05.21-.1.31-.72,2.19-1,3.8-1,4.8,0,.3.03.54.07.74.1.47.31.57.47.67s.47.16.93.05c.88-.21,2.17-.88,3.47-1.86s2.54-2.23,3.47-3.36c.1-.16.36-.26.57-.26.41,0,.78.31.78.72,0,.16-.1.36-.21.47-.98,1.24-2.33,2.54-3.73,3.57s-2.79,1.92-4.09,2.17c-.24.06-.48.08-.7.08-.41,0-.79-.09-1.16-.29-.57-.31-1.04-.88-1.19-1.6-.1-.4-.16-.85-.16-1.35,0-.28.02-.57.05-.88-.16.21-.26.31-.41.52-.72.88-1.5,1.76-2.17,2.38-.36.31-.67.62-.98.83s-.62.41-1.09.36c-.31,0-.67-.16-.88-.41s-.36-.57-.41-.83c-.02-.13-.03-.26-.03-.39,0-.44.12-.89.24-1.37.36-1.29,1.09-2.79,2.07-4.14.85-1.19,1.87-1.61,2.72-1.61.19,0,.37.02.54.06.62.1,1.09.41,1.35.62.1-.26.21-.47.21-.52s.05-.05.05-.1c.1-.26.41-.52.67-.52ZM375.2,22.72c-.36,0-.83.21-1.45,1.04-.88,1.19-1.55,2.59-1.86,3.62-.1.47-.1.88-.1,1.09.05,0,0,0,.05-.05.21-.1.47-.36.78-.62.62-.57,1.4-1.4,2.07-2.28.62-.78,1.24-1.6,1.71-2.33l-.05-.05s-.31-.26-.78-.36c-.1,0-.26-.05-.36-.05ZM375.12,17.08c.41,0,.72.31.72.72,0,.05-.05.21-.05.26l-.41,1.24c-.1.31-.36.52-.67.52-.41,0-.78-.31-.78-.72,0-.05.05-.21.05-.26l.41-1.24c.1-.31.41-.52.72-.52ZM377.66,17.08c.41,0,.72.31.72.72,0,.05-.05.21-.05.26l-.41,1.24c-.1.31-.36.52-.67.52-.41,0-.78-.31-.78-.72,0-.05.05-.21.05-.26l.41-1.24c.1-.31.41-.52.72-.52Z"/>
  <path class="st0" d="M393.91,22.26c.41,0,.72.31.72.72v.21c-.4,1.46-.54,2.6-.54,3.42,0,.58.07,1.01.18,1.29.16.36.26.47.47.57s.52.16.98.05c1.76-.36,4.92-2.69,7.3-5.28.1-.16.31-.21.52-.21.41,0,.78.31.78.72,0,.16-.1.41-.21.52-2.48,2.74-5.54,5.18-8.07,5.69-.24.04-.49.06-.74.06-.39,0-.78-.06-1.13-.22-.57-.26-1.04-.72-1.29-1.35-.19-.5-.3-1.11-.3-1.82,0-.25.01-.5.04-.77-1.14,1.29-2.64,2.74-4.4,3.73-.52.26-.98.41-1.45.41s-.88-.31-1.14-.67c-.32-.49-.42-1.01-.42-1.55,0-.25.02-.51.06-.78.16-1.66.78-3.47.78-3.47.1-.31.36-.52.67-.52.41,0,.78.31.78.72,0,.05-.05.16-.05.21,0,0-.52,1.81-.67,3.21-.05.72.05,1.29.1,1.4.05,0,.26-.05.62-.26,3.16-1.76,5.8-5.75,5.8-5.75.1-.21.41-.31.62-.31Z"/>
  <path class="st0" d="M416.05,21.63h.05c.05,0,.21,0,.26.05.26.1.41.26.52.47s.16.36.16.52c.05.31,0,.67-.05.98-.1.67-.31,1.4-.41,2.17-.06.43-.1.82-.1,1.17,0,.29.03.54.1.75.16.47.31.67.93.78.11.02.24.03.37.03.52,0,1.15-.17,1.81-.5.83-.41,1.66-1.09,2.43-1.81,1.55-1.4,2.69-2.95,2.69-2.95.1-.16.36-.26.57-.26.41,0,.72.31.72.72,0,.16-.05.36-.16.47,0,0-1.19,1.6-2.85,3.11-.83.78-1.76,1.5-2.74,2.02-.79.42-1.65.73-2.52.73-.21,0-.42-.02-.64-.06-1.09-.21-1.76-1.04-2.02-1.86-.12-.39-.16-.78-.16-1.18,0-.46.05-.91.11-1.36.1-.67.21-1.29.31-1.81l-.05.05c-.52.62-1.24,1.55-1.92,2.48s-1.4,1.86-2.02,2.54c-.31.36-.62.67-.93.88-.16.1-.31.21-.52.26s-.52,0-.78-.1c-.36-.16-.62-.47-.72-.78s-.16-.57-.21-.88c-.02-.21-.02-.42-.02-.64,0-.43.02-.88.02-1.33s.02-.9.02-1.28c0-.19,0-.37-.02-.53,0-.21-.05-.31-.1-.41-.1.1-.21.26-.36.41-.41.52-.98,1.35-1.5,2.17s-1.04,1.71-1.55,2.33c-.26.31-.47.57-.78.78-.16.1-.31.21-.52.26s-.52.05-.78-.1c-.36-.21-.47-.57-.57-.88s-.1-.62-.1-.93c0-.62.1-1.29.26-1.97.31-1.35.72-2.59.72-2.59.1-.26.36-.52.67-.52.41,0,.78.31.78.72,0,.05-.05.21-.05.26,0,0-.41,1.19-.67,2.43-.16.62-.26,1.24-.26,1.71v.05l.16-.16c.41-.52.93-1.4,1.45-2.23s1.09-1.66,1.6-2.28c.26-.31.52-.62.83-.83s.83-.36,1.29-.1c.67.36.88,1.09.93,1.71s.05,1.35.05,2.02c0,.45-.02.87-.02,1.25,0,.19,0,.36.02.51,0,.16.05.21.05.31.16-.1.31-.31.52-.52.57-.62,1.24-1.5,1.92-2.43s1.35-1.81,1.97-2.54c.31-.36.62-.67.88-.88.16-.1.26-.21.47-.31.1-.05.26-.1.47-.1Z"/>
  <path class="st0" d="M428.47,21.17h.16c.21,0,.41.05.62.1.83.21,1.55.67,1.76,1.45.1.41,0,.88-.26,1.24s-.67.57-1.14.72c-.37.11-.8.16-1.3.16-.71,0-1.57-.11-2.63-.32-.62.78-1.14,1.6-1.24,2.23-.1.52,0,.83.36,1.14s1.19.57,2.59.57c2.28,0,4.66-1.29,6.47-2.59s2.95-2.64,2.95-2.64c.1-.16.36-.21.57-.21.41,0,.72.31.72.72,0,.16-.1.41-.21.52,0,0-1.29,1.4-3.21,2.79s-4.5,2.9-7.3,2.9c-1.6,0-2.79-.31-3.57-.93-.62-.5-.88-1.25-.88-1.99,0-.19.02-.37.05-.55.31-1.81,1.81-3.57,3.47-4.66.67-.47,1.35-.67,2.02-.67ZM428.58,22.67c-.36,0-.83.1-1.29.41-.1.05-.16.16-.26.21.4.06.76.08,1.07.08.53,0,.93-.07,1.16-.13.21-.05.26-.1.31-.16-.05-.05-.26-.26-.67-.36-.1,0-.21-.05-.31-.05Z"/>
</svg>