<?xml version="1.0" encoding="UTF-8"?>
<svg id="Ebene_1" xmlns="http://www.w3.org/2000/svg" xmlns:xlink="http://www.w3.org/1999/xlink" version="1.1" viewBox="0 0 575.4 583.44">
  <!-- Generator: Adobe Illustrator 30.6.0, SVG Export Plug-In . SVG Version: 2.1.4 Build 109)  -->
  <defs>
    <style>
      .st0 {
        fill: none;
      }

      .st1 {
        fill: url(#Unbenannter_Verlauf);
      }

      .st2 {
        fill: url(#Unbenannter_Verlauf_2);
      }

      .st3 {
        fill: url(#Unbenannter_Verlauf_4);
      }

      .st4 {
        fill: url(#Unbenannter_Verlauf_3);
      }

      .st5 {
        fill: url(#Unbenannter_Verlauf_8);
      }

      .st6 {
        fill: url(#Unbenannter_Verlauf_6);
      }

      .st7 {
        fill: url(#Unbenannter_Verlauf_7);
      }

      .st8 {
        fill: url(#Unbenannter_Verlauf_5);
      }

      .st9 {
        clip-path: url(#clippath-1);
      }

      .st10 {
        clip-path: url(#clippath-3);
      }

      .st11 {
        clip-path: url(#clippath-4);
      }

      .st12 {
        clip-path: url(#clippath-2);
      }

      .st13 {
        clip-path: url(#clippath-7);
      }

      .st14 {
        clip-path: url(#clippath-6);
      }

      .st15 {
        clip-path: url(#clippath-5);
      }

      .st16 {
        clip-path: url(#clippath);
      }
    </style>
    <clipPath id="clippath">
      <path class="st0" d="M229.47,156.48l-6.11,3.98,6.17-2.43c74.08-38.92,169.12,14.42,175.44,97.94,5.12,43.62-13.91,87.1-46.81,115.43-51.71,48.92-137.49,38.92-187.81-7.4-4.3-3.68-10.84-10.62-14.95-14.41l1.69,2.35c90.54,112.38,262.9,52.35,259.47-92.84-2.42-70.62-61.68-119.02-125.26-119.02-20.76,0-41.98,5.16-61.83,16.39"/>
    </clipPath>
    <linearGradient id="Unbenannter_Verlauf" data-name="Unbenannter Verlauf" x1="-10.83" y1="834.51" x2="-9.83" y2="834.51" gradientTransform="translate(5349.1342 408002.3753) scale(488.5639 -488.5639)" gradientUnits="userSpaceOnUse">
      <stop offset="0" stop-color="#5b5450"/>
      <stop offset="0" stop-color="#5b5450"/>
      <stop offset=".53" stop-color="#c7b5a3"/>
      <stop offset=".61" stop-color="#c2b09f"/>
      <stop offset=".71" stop-color="#b4a495"/>
      <stop offset=".8" stop-color="#9e9083"/>
      <stop offset=".9" stop-color="#7f746c"/>
      <stop offset="1" stop-color="#5b5450"/>
    </linearGradient>
    <clipPath id="clippath-1">
      <path class="st0" d="M322.59,328.15s0,0,0,0c0,0,0,0,0,0M288.54,265.77c-1.32,3.51-6.27,7.76-8.38,11.01,0,0-.16-20.34-.16-20.34-3.02-7.88-2.68,24.79-3.38,25.68-.69-1.59-5.84-9.7-6.86-11.36,6.46,14.78,5.86,30.67,1.46,46.06-18.74-32.99,5.71-25.59-13.11-42.9-2.78,6.63-2.79,13.94,4.12,18.57l-.35,5.77c-4.24-4.33-7.76-7.81-12.49-11.63,4.61,5.73,10.25,12.65,13.43,19.58l-10.97-3.53-.83-.09c-6.87-9.99-17.31-9.35-27.42-.59,8.39,6.87,19.18,10.88,26.98.67,19.94,7.48,16.19,45.09,14.69,58.29-1.17,10.38-18.89,17.65-42.87,19.16,18.93,3.98,37.52-.96,56.08-5.92,19.35-5.16,38.67-10.32,58.32-5.36-3.62-3.21-11.39-4.91-20.4-5.14-3.33-.08-7.8.28-12.5.64-10.88.83-23.06,1.66-25.51-2.99-5.17-9.82-3.31-55.05,21.79-47.34.41,10.9,10.39,14.22,19.35,14.44.72,0,1.47-.07,2.04-.15.55-.08.94-.16.99-.15-6.12-15.61-10.05-15.29-16.59-14.97-3.58.18-7.95.35-13.89-2.1,5.15-3.85,12.75-6.77,18.99-7.98-8.59-.76-19.57,4.66-26.84,8.68,1.51-7.58,9.59-15.15,14.35-20.45l-8.93,6.22c.33-1.8,1-5.45,1.34-7.26,7.65-1.61,9.19-10.74,6.76-17.38-.08-.3-10.93,5.04-8.76,13.87,2.24,10.34-6.4,21.49-11.12,30.83,1.52-16.88-1.58-37.68,11.68-50.64,11.95,1.91,18.64-10.1,19.36-22.01-13.37,2.24-21.01,9.28-20.41,20.8"/>
    </clipPath>
    <linearGradient id="Unbenannter_Verlauf_2" data-name="Unbenannter Verlauf 2" x1="-10.83" y1="834.48" x2="-9.83" y2="834.48" gradientTransform="translate(5359.9938 408010.1578) scale(488.5639 -488.5639)" gradientUnits="userSpaceOnUse">
      <stop offset="0" stop-color="#5b5450"/>
      <stop offset="0" stop-color="#5b5450"/>
      <stop offset=".53" stop-color="#c7b5a3"/>
      <stop offset=".61" stop-color="#c2b09f"/>
      <stop offset=".71" stop-color="#b4a495"/>
      <stop offset=".8" stop-color="#9e9083"/>
      <stop offset=".9" stop-color="#7f746c"/>
      <stop offset="1" stop-color="#5b5450"/>
    </linearGradient>
    <clipPath id="clippath-2">
      <path class="st0" d="M228.74,270.92c.78,10.65,13.14,23.62,21.12,16.12,1.01-11.29-9.68-16.15-19.9-16.15-.4,0-.81,0-1.21.02"/>
    </clipPath>
    <linearGradient id="Unbenannter_Verlauf_3" data-name="Unbenannter Verlauf 3" x1="-10.83" y1="834.58" x2="-9.83" y2="834.58" gradientTransform="translate(5336.9656 408026.4517) scale(488.5639 -488.5639)" gradientUnits="userSpaceOnUse">
      <stop offset="0" stop-color="#5b5450"/>
      <stop offset="0" stop-color="#5b5450"/>
      <stop offset=".53" stop-color="#c7b5a3"/>
      <stop offset=".61" stop-color="#c2b09f"/>
      <stop offset=".71" stop-color="#b4a495"/>
      <stop offset=".8" stop-color="#9e9083"/>
      <stop offset=".9" stop-color="#7f746c"/>
      <stop offset="1" stop-color="#5b5450"/>
    </linearGradient>
    <clipPath id="clippath-3">
      <path class="st0" d="M297.87,291.85c9.66,6.74,19.58-.96,24.48-10.33-2.59-1.24-5.75-1.84-8.93-1.84-8.62,0-17.41,4.39-15.55,12.16"/>
    </clipPath>
    <linearGradient id="Unbenannter_Verlauf_4" data-name="Unbenannter Verlauf 4" x1="-10.83" y1="834.49" x2="-9.83" y2="834.49" gradientTransform="translate(5349.9492 407990.6504) scale(488.5639 -488.5639)" gradientUnits="userSpaceOnUse">
      <stop offset="0" stop-color="#5b5450"/>
      <stop offset="0" stop-color="#5b5450"/>
      <stop offset=".53" stop-color="#c7b5a3"/>
      <stop offset=".61" stop-color="#c2b09f"/>
      <stop offset=".71" stop-color="#b4a495"/>
      <stop offset=".8" stop-color="#9e9083"/>
      <stop offset=".9" stop-color="#7f746c"/>
      <stop offset="1" stop-color="#5b5450"/>
    </linearGradient>
    <clipPath id="clippath-4">
      <path class="st0" d="M269.88,271.08c4.99-10.67-4.27-19.13-14.34-22.37-2.9,10.27,4.29,26.69,14.34,22.37"/>
    </clipPath>
    <linearGradient id="Unbenannter_Verlauf_5" data-name="Unbenannter Verlauf 5" x1="-10.83" y1="834.59" x2="-9.83" y2="834.59" gradientTransform="translate(5329.7652 408010.5661) scale(488.5639 -488.5639)" gradientUnits="userSpaceOnUse">
      <stop offset="0" stop-color="#5b5450"/>
      <stop offset="0" stop-color="#5b5450"/>
      <stop offset=".53" stop-color="#c7b5a3"/>
      <stop offset=".61" stop-color="#c2b09f"/>
      <stop offset=".71" stop-color="#b4a495"/>
      <stop offset=".8" stop-color="#9e9083"/>
      <stop offset=".9" stop-color="#7f746c"/>
      <stop offset="1" stop-color="#5b5450"/>
    </linearGradient>
    <clipPath id="clippath-5">
      <path class="st0" d="M279.36,256.88c11.48-8,6.97-22.21-1.46-31.52-9.09,8.84-11.45,29.99,1.46,31.52"/>
    </clipPath>
    <linearGradient id="Unbenannter_Verlauf_6" data-name="Unbenannter Verlauf 6" x1="-10.83" y1="834.61" x2="-9.83" y2="834.61" gradientTransform="translate(5320.8011 407999.4527) scale(488.5639 -488.5639)" gradientUnits="userSpaceOnUse">
      <stop offset="0" stop-color="#5b5450"/>
      <stop offset="0" stop-color="#5b5450"/>
      <stop offset=".53" stop-color="#c7b5a3"/>
      <stop offset=".61" stop-color="#c2b09f"/>
      <stop offset=".71" stop-color="#b4a495"/>
      <stop offset=".8" stop-color="#9e9083"/>
      <stop offset=".9" stop-color="#7f746c"/>
      <stop offset="1" stop-color="#5b5450"/>
    </linearGradient>
    <clipPath id="clippath-6">
      <path class="st0" d="M309.89,303.03c-1.52,7.94,10.95,8.96,16.83,8.22,8.24-1.04,13.2-6.4,13.2-6.4,0,0-3.28-4.72-14.41-7.28-2.41-.55-4.44-.79-6.16-.79-8.94,0-9.46,6.25-9.46,6.25"/>
    </clipPath>
    <linearGradient id="Unbenannter_Verlauf_7" data-name="Unbenannter Verlauf 7" x1="-10.83" y1="834.45" x2="-9.83" y2="834.45" gradientTransform="translate(5361.2304 407984.5817) scale(488.5639 -488.5639)" gradientUnits="userSpaceOnUse">
      <stop offset="0" stop-color="#5b5450"/>
      <stop offset="0" stop-color="#5b5450"/>
      <stop offset=".53" stop-color="#c7b5a3"/>
      <stop offset=".61" stop-color="#c2b09f"/>
      <stop offset=".71" stop-color="#b4a495"/>
      <stop offset=".8" stop-color="#9e9083"/>
      <stop offset=".9" stop-color="#7f746c"/>
      <stop offset="1" stop-color="#5b5450"/>
    </linearGradient>
    <clipPath id="clippath-7">
      <path class="st0" d="M278.62,178.41l-93.58,86.61c-.85.78-1.12,1.98-.7,3.05.42,1.07,1.44,1.76,2.59,1.76h15.06l-.05,102.01c1.35.89,2.73,1.7,4.15,2.45l.05-105.83c0-1.53-1.25-2.78-2.78-2.78h-12.93l90.09-83.37,46.97,43.4c.81.75,1.98.95,2.99.51,1.01-.43,1.67-1.43,1.68-2.53l.1-11.47,12.19.06.03,28.57c0,.83.37,1.61,1.01,2.14l27.59,22.77h-12.86c-1.53,0-2.78,1.25-2.78,2.78v89.83c1.45-1.18,2.83-2.44,4.15-3.75v-84.72h15.3c1.19,0,2.21-.72,2.61-1.84.4-1.12.07-2.33-.85-3.08l-30.04-24.78-.03-29.29c0-1.53-1.24-2.77-2.76-2.78l-14.92-.08c-.74.06-1.44.28-1.97.8-.53.52-.82,1.22-.83,1.95l-.08,9.74-45.63-42.16c-.53-.49-1.21-.73-1.89-.73s-1.36.24-1.89.73"/>
    </clipPath>
    <linearGradient id="Unbenannter_Verlauf_8" data-name="Unbenannter Verlauf 8" x1="-10.83" y1="834.54" x2="-9.83" y2="834.54" gradientTransform="translate(5339.8888 408003.0484) scale(488.5639 -488.5639)" gradientUnits="userSpaceOnUse">
      <stop offset="0" stop-color="#5b5450"/>
      <stop offset="0" stop-color="#5b5450"/>
      <stop offset=".53" stop-color="#c7b5a3"/>
      <stop offset=".61" stop-color="#c2b09f"/>
      <stop offset=".71" stop-color="#b4a495"/>
      <stop offset=".8" stop-color="#9e9083"/>
      <stop offset=".9" stop-color="#7f746c"/>
      <stop offset="1" stop-color="#5b5450"/>
    </linearGradient>
  </defs>
  <g class="st16">
    <rect class="st1" x="83.9" y="75.2" width="407.59" height="433.05" transform="translate(-111.04 197.48) rotate(-32.1)"/>
  </g>
  <g class="st9">
    <rect class="st2" x="194.19" y="225.21" width="170.85" height="178.66" transform="translate(-124.4 196.68) rotate(-32.1)"/>
  </g>
  <g class="st12">
    <rect class="st4" x="224.15" y="266.83" width="31.31" height="31.79" transform="translate(-113.58 170.65) rotate(-32.1)"/>
  </g>
  <g class="st10">
    <rect class="st3" x="293" y="274.14" width="32.36" height="30.01" transform="translate(-106.38 208.5) rotate(-32.1)"/>
  </g>
  <g class="st11">
    <rect class="st8" x="247.24" y="244.84" width="33.02" height="34.43" transform="translate(-98.93 180.22) rotate(-32.1)"/>
  </g>
  <g class="st15">
    <rect class="st6" x="259.94" y="221.29" width="37.41" height="39.66" transform="translate(-85.53 184.93) rotate(-32.1)"/>
  </g>
  <g class="st14">
    <rect class="st7" x="306.74" y="289.55" width="34.81" height="29.65" transform="translate(-112.19 218.78) rotate(-32.1)"/>
  </g>
  <g class="st13">
    <rect class="st5" x="146.66" y="140.63" width="270.49" height="270.7" transform="translate(-103.56 192) rotate(-32.1)"/>
  </g>
</svg>